<?xml version="1.0" standalone="no"?>
<!DOCTYPE svg PUBLIC "-//W3C//DTD SVG 20010904//EN"
 "http://www.w3.org/TR/2001/REC-SVG-20010904/DTD/svg10.dtd">
<svg version="1.0" xmlns="http://www.w3.org/2000/svg"
 width="1080.000000pt" height="1080.000000pt" viewBox="0 0 1080.000000 1080.000000"
 preserveAspectRatio="xMidYMid meet">

<g transform="translate(0.000000,1080.000000) scale(0.100000,-0.100000)"
fill="#000000" stroke="none">
<path d="M4750 9925 c-507 -101 -880 -544 -880 -1047 0 -297 155 -641 387
-858 44 -41 108 -91 142 -110 34 -19 68 -39 76 -45 11 -8 -4 -57 -88 -280
l-102 -270 -70 -22 c-38 -12 -178 -54 -310 -93 -339 -100 -449 -151 -567 -259
-150 -137 -241 -330 -268 -570 -27 -232 34 -503 176 -770 l44 -83 0 -142 c0
-332 42 -479 228 -788 145 -241 181 -329 227 -548 34 -166 68 -266 114 -337
74 -114 189 -192 298 -201 l52 -4 7 -57 c15 -119 -17 -289 -112 -591 -89 -281
-105 -357 -111 -510 -4 -86 -1 -156 7 -193 13 -63 30 -76 30 -23 0 57 29 207
57 291 14 44 70 181 123 305 136 314 172 432 186 596 17 208 -57 430 -249 744
-458 749 -598 1084 -662 1580 -9 69 -23 159 -31 200 -17 81 -88 245 -102 236
-5 -3 1 -28 14 -55 37 -77 53 -161 69 -371 42 -533 156 -865 541 -1575 110
-204 204 -409 204 -447 0 -49 -131 9 -193 84 -70 85 -95 153 -162 441 -44 188
-76 264 -193 456 -127 211 -170 297 -199 410 -22 84 -26 122 -30 306 l-4 210
-64 130 c-120 243 -158 392 -158 610 0 135 2 159 27 240 43 141 88 218 186
316 99 100 173 145 328 199 130 46 502 154 508 148 2 -3 -19 -64 -47 -137 -27
-73 -48 -135 -46 -137 2 -3 31 24 64 59 183 196 316 509 339 799 4 54 12 92
20 99 15 12 19 57 6 75 -4 6 -40 28 -81 49 -294 154 -539 636 -500 984 16 141
84 315 177 453 169 251 451 400 783 415 199 9 367 -25 531 -108 269 -136 495
-411 581 -709 43 -146 51 -229 52 -485 0 -344 0 -344 -236 -680 l-151 -214
-71 36 c-40 19 -75 40 -78 45 -3 4 -14 71 -23 148 -10 77 -22 143 -27 145 -21
14 -101 -348 -101 -462 l-1 -62 -108 95 c-60 52 -118 94 -129 94 -23 0 -60
-33 -60 -55 0 -18 19 -36 198 -188 191 -162 295 -236 427 -302 218 -109 412
-134 733 -94 140 18 160 12 246 -74 107 -107 171 -242 232 -487 24 -100 28
-134 28 -260 -1 -128 -4 -161 -33 -280 -45 -191 -50 -296 -20 -441 21 -99 24
-141 24 -324 0 -268 -19 -375 -120 -696 -28 -88 -51 -187 -61 -258 -34 -254
-57 -336 -114 -424 -32 -47 -74 -82 -89 -73 -16 10 -33 129 -32 225 0 129 19
227 90 477 85 297 101 383 107 559 5 123 1 191 -21 380 -46 404 -44 533 10
704 28 85 29 91 16 91 -11 0 -54 -98 -79 -180 -36 -119 -43 -226 -40 -625 4
-461 6 -443 -132 -855 -118 -352 -142 -458 -142 -625 -1 -291 86 -488 391
-887 228 -300 319 -473 352 -673 7 -41 17 -74 23 -72 27 9 43 181 26 292 -29
192 -108 366 -316 700 -72 116 -150 246 -172 291 l-40 80 52 40 c108 84 165
207 196 426 29 201 42 261 100 447 28 90 62 220 77 290 25 114 27 146 27 346
1 186 -3 239 -22 342 -28 156 -28 221 4 368 45 213 56 302 50 410 -13 235
-105 518 -220 678 -58 83 -145 163 -203 189 -50 22 -116 22 -278 -1 -275 -40
-542 26 -771 187 l-71 51 19 56 c10 30 19 76 20 100 1 25 4 45 5 45 2 0 30
-13 63 -30 75 -38 104 -38 127 -2 10 15 87 126 172 247 247 351 253 369 254
740 0 326 -28 487 -123 691 -165 358 -475 614 -840 695 -103 22 -395 25 -500
4z"/>
<path d="M6016 6614 c-24 -24 -20 -80 6 -98 12 -9 31 -16 41 -16 24 0 67 44
67 70 0 49 -79 80 -114 44z"/>
<path d="M3654 6534 c-22 -33 -10 -72 29 -94 24 -13 30 -13 55 0 33 19 43 78
17 104 -26 26 -81 21 -101 -10z"/>
<path d="M5735 6465 c-56 -55 -16 -145 63 -145 50 0 86 36 86 85 0 77 -95 115
-149 60z"/>
<path d="M3895 6374 c-44 -47 -29 -115 30 -140 94 -39 168 83 88 146 -37 29
-88 26 -118 -6z"/>
<path d="M5380 6333 c-72 -37 -104 -123 -75 -199 62 -164 307 -121 307 55 0
91 -55 152 -146 158 -36 3 -62 -1 -86 -14z"/>
<path d="M4265 6206 c-45 -20 -67 -50 -72 -99 -10 -82 42 -137 127 -137 32 0
48 7 76 33 68 62 51 168 -31 203 -42 17 -61 17 -100 0z"/>
<path d="M4778 6066 c-56 -20 -85 -42 -114 -86 -74 -111 -34 -264 82 -320 223
-108 430 164 263 345 -62 67 -149 90 -231 61z"/>
<path d="M4766 5377 c-100 -57 -102 -197 -3 -271 20 -15 43 -20 82 -20 90 0
155 65 155 157 0 123 -127 196 -234 134z"/>
<path d="M4940 4808 c-13 -7 -35 -29 -47 -47 -85 -126 89 -267 197 -160 51 52
52 124 2 180 -23 26 -38 32 -78 36 -29 2 -59 -1 -74 -9z"/>
<path d="M5134 4311 c-58 -25 -85 -120 -46 -167 73 -91 217 -26 195 89 -11 57
-95 101 -149 78z"/>
<path d="M5231 3846 c-79 -44 -59 -167 29 -177 64 -7 110 31 110 88 0 45 -14
69 -50 88 -35 18 -57 19 -89 1z"/>
<path d="M5277 3409 c-26 -15 -46 -68 -40 -102 7 -34 56 -77 89 -77 92 0 137
115 67 170 -28 22 -86 26 -116 9z"/>
<path d="M5239 2975 c-14 -8 -32 -28 -39 -44 -27 -66 19 -131 92 -131 87 0
123 102 57 163 -33 30 -69 34 -110 12z"/>
<path d="M5155 2492 c-67 -13 -83 -105 -26 -149 27 -21 79 -15 106 12 59 58 3
153 -80 137z"/>
<path d="M3990 1813 c-831 -12 -2271 -61 -2287 -76 -7 -7 865 -43 1392 -57
1895 -51 4170 -34 5750 42 314 15 288 19 -255 42 -983 42 -1866 56 -3280 54
-641 -1 -1235 -3 -1320 -5z"/>
</g>
</svg>
