<?xml version="1.0" encoding="utf-8"?>
<!-- Generator: Adobe Illustrator 18.1.1, SVG Export Plug-In . SVG Version: 6.00 Build 0)  -->
<svg version="1.1" id="Layer_1" xmlns="http://www.w3.org/2000/svg" xmlns:xlink="http://www.w3.org/1999/xlink" x="0px" y="0px"
	 viewBox="0 0 960 960" enable-background="new 0 0 960 960" xml:space="preserve">
<g>
	<line fill="none" stroke="#00135E" stroke-width="4" stroke-miterlimit="10" x1="195.7" y1="587.7" x2="195.7" y2="932.3"/>
	<line fill="none" stroke="#00135E" stroke-width="4" stroke-miterlimit="10" x1="769.3" y1="587.7" x2="769.3" y2="932.3"/>
	<g>
		<path fill="#3C3123" d="M510.4,29.9c9.5,2.8,32.4,19.4,23.4,41.3c-14.1,5.3-21.4,14-21.4,14s-10.7,4.5-20.9,12.3
			c-2.8-0.7-26.8-7.1-24.1-36.3C470.4,30.3,500.5,27,510.4,29.9z"/>
		<path fill="#B0D0F7" d="M594.5,462.1c29.2,7.9,59.5,32.5,59.5,32.5s-11.6,12.8,5.4,29.7l-0.3,0.5c-17.1-10-50.6-13.2-93.9-5
			c-32.5,6.1-129.6,23.9-129.6,23.9s-6.6-4.7-14.4-6.8c1.4-14.9,26.4-66.3,26.4-66.3s102.4-13.2,134.6-10.8
			C586.1,460.3,590.3,461,594.5,462.1z"/>
		<path fill="#2D4268" d="M247.8,505.1c2.9-9.3,5.6-16.4,7.3-18.3c6.1-6.5,19.4,2.3,85.6-4.6l0-0.2c4.8-27.4,24-67.7,24-67.7
			l1.3-0.3c0,0.2,0,0.4,0.1,0.6c1.3,3,6.3,4.3,13.5,4.5c26.4,0.7,81.8-13.9,88.9-15.8c-8.3,22.3-21.1,67.5-21.1,67.5
			s-24.9,51.4-26.4,66.3c-3.8-1-7.8-1.3-11.6-0.3c-10.1,2.9-32.4,18.6-37.2,25c-24.9,2.2-132.7,1.8-136.7,1.8
			c-0.5,0-0.7-0.8-0.6-2.3C235.2,553,241.9,524.5,247.8,505.1z"/>
		<path fill="#8E6237" d="M855.1,558H727.3v-0.2c0,0,11.1-12,15.9-11.5l0.6-0.4c8.3,10.9,28.6,9.8,35.3,1.7
			c4.7-5.7,2.8-12.6,0.8-16.9l0,0c0,0,24.7-16.5,44.6-8.3c0,0,1-9.4,6.1-18.9v0c-0.2-2.8-2.9-17.2,4.9-27.6c-0.1-2.9,0-8.1,1.7-13.6
			l-0.7-0.1c0,0-21.9-17.1-16.8-34.5c1.1-3.7,3.4-7.4,7.3-10.9c22.7-20.2,92.7,7,90.8,33.5c-1.2,16.4-17.2,6-18.1,5.4
			c0.9,1,17.9,20.8,11.5,28c-6.3,7.1-19.9-9.3-21-10.6c0.7,1.8,13.7,33,3.3,37.5c-10.7,4.6-16.5-10.7-16.5-10.7
			S879.8,551.5,855.1,558z"/>
		<path fill="#3C3123" d="M530,67.4c8.3-3.1,18.9-5,31.9-3.3c35.1,4.5,64.4,32.6,56.1,47.1c-1.5,2.6-3.9,4.2-7,5.2
			c-13.8,4.4-40.2-5.6-46.3-12.1l-1-1.6c-7.5,4-20,7-40.4,6.1l-2-0.4c-3.2,10.3-12.1,24.1-35.5,30.9l-0.6,0.1
			c2.4,11.7,4.7,30.6-1.1,44.9l-1.2,0.2c-3.6-3-8.9-5.6-14.9-2.3c-10.7-35.5,1.7-65.6,1.7-65.6c2.5-9.1,10.1-16.9,17.9-22.8
			c10.3-7.8,20.9-12.3,20.9-12.3S515.9,72.7,530,67.4z"/>
		<path fill="#D6B59F" d="M511.1,256.7c3.8,2.5,7.9,4.4,12.4,5.1c11.9,1.9,30.5,2,47.4-2.9l0.5,1.7l-0.4,10.3
			c0,0-13.9,18.7-29.3,17.3c-28.5-2.5-29.7-16.5-29.7-16.5s-0.4-0.8-1.3-2.1L511.1,256.7z"/>
		<path fill="#D6B59F" d="M511.1,256.7c-17.8-11.9-27.6-39.5-27.6-39.5c-26,1.2-26.4-28.9-15.3-35.1c6-3.3,11.3-0.8,14.9,2.3
			l1.2-0.2c5.8-14.3,3.5-33.2,1.1-44.9l0.6-0.1c23.4-6.8,32.3-20.6,35.5-30.9l2,0.4c20.4,0.9,32.8-2,40.4-6.1l1,1.6
			c6.1,6.5,32.5,16.5,46.3,12.1l0.3,1c0,0,2.4,62.4-1.7,100.7c-2.4,23.2-19.5,35.2-38.9,40.8c-16.9,4.9-35.5,4.8-47.4,2.9
			C519,261.1,514.8,259.2,511.1,256.7z"/>
		<path fill="#D6B59F" d="M259.5,342.2c0,0,15.6-3,16.7,1.4c0.6,2.6-6.6,6.5-14,8.3c-5.4,1.3-10.9,1.4-13.6-0.8
			c-4.8-3.9-8.3-19.8-7.7-35.2c0.5-15.4,17.1-17.6,17.1-17.6h0.1c-0.1,4.2-0.1,8.6,0,13c4-0.8,8.5-1.6,10.9,0.7
			c4.4,4.4-11,17.1-11,17.1s15.4-5.5,17.1-1.7C276.6,331.2,259.5,342.2,259.5,342.2z"/>
		<path fill="#D6B59F" d="M477,380.8c-9.1-9.6-14.1-17.9-13.8-19.5c0.8-4.5,17.3-1.7,17.3-1.7s-16.5-7.4-14.4-10.7
			c2-3.3,17.8,2.9,17.8,2.9s-16.1-15.3-13.6-18.6c1.9-2.5,15.4,4.4,21.6,7.8c1.2-4.1,2.2-8,2.7-11.6l0.8,0.2c0,0,8.3,4.5,12,11.1
			c0,0,26.5,35.3,56.6,15.4c3.8-2.5,7.1-5.2,10.1-8.1c0.7,1.8,13.1,33.9,38,35.1l0.8,0.7c-1.2,1.6-2.5,3.2-3.8,4.7
			c-12,14-27.4,24.2-46.6,26.7C524,420.2,493.5,398.3,477,380.8z"/>
		<path fill="#EFD1BD" d="M704.6,548.1c-9.2-6.5-33.5-0.8-33.5-0.8l-0.2-0.1c0.2-0.5,0.3-1.1,0.4-1.7c1-8.3-3.4-15.4-12.3-20.6
			l0.3-0.5c-16.9-16.9-5.4-29.7-5.4-29.7l31,3.1c0.4,13.4,2.6,25.4,6.6,32.4C695.9,537.7,700.5,543.7,704.6,548.1z"/>
		<path fill="#EFD1BD" d="M743.8,545.9l-0.6,0.4c-4.8-0.5-15.9,11.5-15.9,11.5v0.2h-12.4v-0.2c0,0-4.5-3.2-10.3-9.7
			c-4-4.4-8.7-10.4-13.1-17.9c-4-7-6.2-19-6.6-32.4c-0.7-22.4,3.8-48.5,13.6-60.9c15.7-19.8,120.6-9.5,120.6-9.5l0.5,0.2
			c-5.1,17.4,16.8,34.5,16.8,34.5l0.7,0.1c-1.7,5.6-1.8,10.8-1.7,13.6c-7.8,10.4-5,24.8-4.9,27.6v0c-5.1,9.5-6.1,18.9-6.1,18.9
			c-19.8-8.3-44.6,8.3-44.6,8.3l0,0c2,4.3,3.9,11.2-0.8,16.9C772.4,555.7,752,556.8,743.8,545.9z"/>
		<path fill="#EFD1BD" d="M421.2,537c7.8,2.1,14.4,6.8,14.4,6.8s97.1-17.8,129.6-23.9c43.2-8.2,76.8-5,93.9,5
			c8.8,5.2,13.3,12.3,12.3,20.6c-0.1,0.6-0.2,1.2-0.4,1.7c-1.3,4.7-6,8.2-13,10.8c-26.1,9.7-85.2,6.6-130.3,7.3
			c-58.6,0.8-107.8-5.4-116.4-3.7c-8.7,1.7-38.4,6.2-39.6,2.5c-0.2-0.5,0.2-1.2,0.8-2.2c4.8-6.5,27.1-22.2,37.2-25
			C413.3,535.7,417.4,536.1,421.2,537z"/>
		<path fill="#EFD1BD" d="M247.8,505.1c-6,19.4-12.6,47.9-12.7,56.2h-0.4c0,0-148.6,2.2-159.1,0.5c-1.9-0.3-3.7-2.3-5.4-5.6
			c-7.8-14.7-13.1-53.6-9.5-57.2c4.4-4.4,22,20.9,34.1,22C106.8,522.2,242.6,505.8,247.8,505.1z"/>
		<path fill="#EFD1BD" d="M311.3,353.5c-11.7,0.5-33.8,7.5-44.6,5.8c-1.8-0.3-3.3-3-4.5-7.4c7.5-1.8,14.6-5.7,14-8.3
			c-1.1-4.4-16.7-1.4-16.7-1.4s17.1-11,15.4-14.8c-1.6-3.9-17.1,1.7-17.1,1.7s15.4-12.7,11-17.1c-2.3-2.3-6.8-1.6-10.9-0.7
			c-0.1-4.4-0.1-8.8,0-13c0.3-17.5,2-32.3,5-33.4c7.4-2.9,21.1,37.2,23.9,40.5c2.9,3.3,67.7-0.8,102.4-1.2
			c10.3-0.1,22.2-0.3,34.3-0.3c28.5,0,57.9,1.3,67.7,7.7c4.2,2.7,4.8,9.4,3.3,18c-0.6,3.6-1.5,7.5-2.7,11.6
			c-6.2-3.4-19.7-10.3-21.6-7.8c-2.5,3.3,13.6,18.6,13.6,18.6s-15.7-6.2-17.8-2.9c-2.1,3.3,14.4,10.7,14.4,10.7s-16.5-2.9-17.3,1.7
			c-0.3,1.6,4.6,9.9,13.8,19.5c-2.8,6.8-5.8,15.9-7.6,20.4c-0.2,0.7-0.5,1.3-0.8,2c-7.2,1.9-62.6,16.4-88.9,15.8
			c2.9-5,5.8-9.8,8.6-14.3c9.2-14.9,17.1-26.9,22.3-34.6l-1.7-1.2C359.5,378.7,329.9,352.6,311.3,353.5z"/>
		<path fill="#46867E" d="M549.2,850.1c0,0,16.4,5.4,29.6-0.4h1.1c0.1,5.1,0,8.3,0,9c-0.8,6.6-47.9,19.4-50.4,12.8
			C527,865.1,549.2,850.1,549.2,850.1z"/>
		<path fill="#2C625B" d="M468.7,859.6c-1.1,6.6-48.7,17.3-50.9,10.7c-2.2-6.6,20.6-20.6,20.6-20.6s19.6,8.6,30.5,6.8
			C468.8,858.2,468.8,859.3,468.7,859.6z"/>
		<path fill="#FF6989" d="M417,587.7h65c-9.6,71-12,242.8-13.1,268.8c-10.9,1.8-30.5-6.8-30.5-6.8
			C420.7,798.5,417.5,623.8,417,587.7z"/>
		<path fill="#FF6989" d="M516.9,587.7h64.9c-6.1,67.9-2.3,222.8-2,262.1h-1.1c-13.2,5.8-29.6,0.4-29.6,0.4
			C529.1,798.9,518.7,620.2,516.9,587.7z"/>
		<path fill="#FFAEBC" d="M468.6,403.2c0.3-0.7,0.5-1.3,0.8-2c1.8-4.6,4.7-13.6,7.6-20.4c16.6,17.4,47,39.4,85.6,34.3
			c19.2-2.5,34.6-12.7,46.6-26.7c-0.9,3.8-15.4,66.4-14.7,73.7c-4.2-1.1-8.3-1.9-12.4-2.2c-32.2-2.5-134.6,10.8-134.6,10.8
			S460.3,425.6,468.6,403.2z"/>
		<path fill="#FFAEBC" d="M510.7,269.6c0.8,1.3,1.3,2.1,1.3,2.1s1.2,14.1,29.7,16.5c15.4,1.3,29.3-17.3,29.3-17.3
			c24-23.9,71-22.3,72.7,15.7c1.1,24.5-8.1,67.6-30.7,97.2l-0.8-0.7c-24.9-1.2-37.3-33.3-38-35.1c-3,2.9-6.4,5.6-10.1,8.1
			c-30.1,19.8-56.6-15.4-56.6-15.4c-3.7-6.6-12-11.1-12-11.1l-0.8-0.2c1.5-8.6,0.9-15.3-3.3-18c-9.8-6.4-39.2-7.7-67.7-7.7v-0.1
			c5-2.1,28.1-43,51.6-50C494.5,247.8,506.9,263.8,510.7,269.6z"/>
		<path fill="#2C73B5" d="M235.1,561.3c0,1.5,0.2,2.3,0.6,2.3c4,0,111.8,0.3,136.7-1.8c-0.7,1-1,1.7-0.8,2.2
			c1.2,3.7,31-0.8,39.6-2.5c8.6-1.7,57.8,4.5,116.4,3.7c45.1-0.7,104.2,2.4,130.3-7.3h56.9h12.4h127.9h11.6
			c8.2,0,14.9,6.6,14.9,14.9c0,4.1-1.7,7.8-4.4,10.5c-2.7,2.7-6.4,4.3-10.5,4.3H581.9h-64.9h-34.8h-65H56.4
			c-8.2,0-14.9-6.6-14.9-14.8c0-4.1,1.7-7.8,4.4-10.5c2.7-2.7,6.4-4.3,10.5-4.3h12.2l1.7-1.7c1.7,3.2,3.5,5.3,5.4,5.6
			c10.5,1.7,159.1-0.5,159.1-0.5H235.1z"/>
	</g>
	<g id="XMLID_1_">
		<g>
			<path fill="#12233D" d="M388.3,404.8c-2.8,4.5-5.6,9.3-8.6,14.3c-7.2-0.2-12.3-1.5-13.5-4.5c-0.1-0.2-0.1-0.4-0.1-0.6
				c-0.1-4.8,22-9.3,22-9.3L388.3,404.8z"/>
		</g>
		<g>
			<g>
				<path fill="#D3A289" d="M417.2,361c0,0-2.4,3.6-6.1,9.1c-1.8,2.8-3.9,6-6.2,9.4c-2.3,3.4-4.6,7.1-7,10.8
					c-2.4,3.7-4.7,7.4-6.9,10.9c-1.1,1.8-2.2,3.4-3.1,5c-1,1.6-1.9,3.1-2.8,4.5c-3.5,5.6-5.8,9.3-5.8,9.3c0,0.1-0.1,0.1-0.2,0
					c-0.1,0-0.1-0.1,0-0.2c0,0,2.2-3.8,5.5-9.5c0.8-1.4,1.7-3,2.7-4.6c0.9-1.6,2-3.3,3.1-5.1c2.2-3.5,4.5-7.2,6.8-10.9
					c2.4-3.7,4.8-7.4,7.1-10.8c2.3-3.4,4.5-6.6,6.3-9.3c1.9-2.7,3.5-4.9,4.7-6.5c1.1-1.6,1.8-2.4,1.8-2.4c0.1-0.1,0.2-0.1,0.2,0
					C417.3,360.8,417.3,360.9,417.2,361z"/>
			</g>
			<g>
				<path fill="#061830" d="M389,458.9c0,0-1.2,1.1-3.1,2.9c-0.9,0.9-2,1.9-3.1,3c-1.1,1.1-2.3,2.3-3.5,3.5
					c-1.2,1.2-2.3,2.4-3.3,3.6c-0.5,0.6-1,1.2-1.5,1.7c-0.5,0.5-0.9,1.1-1.2,1.6c-0.4,0.5-0.7,1-1,1.4c-0.3,0.4-0.5,0.8-0.7,1.1
					c-0.3,0.6-0.5,1-0.5,1l0,0c0,0.1-0.1,0.1-0.2,0.1c-0.1,0-0.1-0.1-0.1-0.2c0,0,0.1-0.4,0.4-1.1c0.1-0.4,0.3-0.8,0.6-1.2
					c0.1-0.2,0.2-0.5,0.4-0.7c0.1-0.3,0.3-0.5,0.5-0.8c0.3-0.5,0.7-1.1,1.1-1.7c0.4-0.6,0.9-1.2,1.4-1.8c1-1.2,2.1-2.5,3.3-3.7
					c0.6-0.6,1.2-1.2,1.8-1.8c0.6-0.6,1.2-1.1,1.8-1.7c1.2-1.1,2.3-2,3.3-2.8c1.9-1.6,3.3-2.6,3.3-2.6c0.1-0.1,0.2,0,0.2,0
					C389.1,458.7,389.1,458.8,389,458.9z"/>
			</g>
			<g>
				<path fill="#061830" d="M398,475.8c0,0-8.9,1.1-22.3,2.7c-6.7,0.8-14.5,1.7-22.9,2.7c-4.2,0.5-8.5,1-12.9,1.5
					c-4.4,0.4-8.9,0.9-13.4,1.2c-9,0.7-18,1.2-26.4,1.4c-8.4,0.2-16.3,0-23.1-0.3c-6.7-0.3-12.4-0.8-16.3-0.4
					c-1.9,0.2-3.4,0.7-4.3,1.3c-0.4,0.3-0.7,0.5-0.9,0.7c-0.2,0.2-0.3,0.3-0.3,0.3l0,0c-0.1,0-0.1,0-0.2,0c0-0.1,0-0.1,0-0.2
					c0,0,0.1-0.1,0.3-0.3c0.2-0.2,0.5-0.5,0.9-0.8c0.9-0.6,2.4-1.2,4.4-1.4c2-0.2,4.4-0.2,7.1-0.2c2.7,0.1,5.8,0.2,9.2,0.3
					c6.7,0.2,14.6,0.3,23,0.1c8.4-0.2,17.4-0.7,26.4-1.5c4.5-0.4,9-0.8,13.4-1.2c4.4-0.5,8.7-1,12.9-1.4c8.4-0.9,16.2-1.8,22.9-2.5
					c13.4-1.4,22.4-2.3,22.4-2.3c0.1,0,0.2,0.1,0.2,0.1C398.2,475.7,398.1,475.8,398,475.8z"/>
			</g>
			<g>
				<path fill="#4E6C8C" d="M574,347.8c0,0,0.7-0.8,1.9-2.1c0.6-0.7,1.4-1.5,2.2-2.4c0.8-1,1.6-2.1,2.6-3.3c0.5-0.6,1-1.2,1.5-1.9
					c0.5-0.7,0.9-1.4,1.4-2.2c0.5-0.7,1-1.5,1.5-2.3c0.5-0.8,0.9-1.6,1.4-2.5c0.5-0.8,0.9-1.7,1.4-2.6c0.5-0.9,0.9-1.8,1.3-2.7
					c0.4-0.9,0.9-1.9,1.3-2.8c0.4-1,0.7-1.9,1.1-2.9c0.8-1.9,1.4-3.9,2-5.8c0.3-1,0.6-1.9,0.8-2.9c0.3-1,0.5-1.9,0.8-2.9
					c0.4-1.9,0.9-3.7,1.1-5.5c0.1-0.9,0.3-1.7,0.4-2.6c0.1-0.8,0.2-1.6,0.3-2.4c0.2-1.5,0.3-3,0.5-4.2c0.1-1.3,0.2-2.4,0.2-3.3
					c0.1-1.8,0.1-2.8,0.1-2.8c0-0.1,0.1-0.3,0.3-0.3c0.1,0,0.3,0.1,0.3,0.2c0,0,0.1,1.1,0,2.9c0,0.9-0.1,2-0.1,3.3
					c-0.1,1.3-0.2,2.7-0.4,4.3c-0.1,0.8-0.2,1.6-0.3,2.4c-0.1,0.8-0.3,1.7-0.4,2.6c-0.3,1.8-0.7,3.6-1.1,5.5
					c-0.2,0.9-0.5,1.9-0.7,2.9c-0.3,1-0.5,2-0.8,2.9c-0.6,2-1.2,4-2,5.9c-0.4,1-0.8,1.9-1.1,2.9c-0.4,0.9-0.9,1.9-1.3,2.8
					c-0.5,0.9-0.8,1.9-1.3,2.7c-0.5,0.9-1,1.7-1.5,2.6c-0.5,0.8-0.9,1.7-1.5,2.5c-0.5,0.8-1,1.6-1.5,2.3c-0.5,0.7-1,1.5-1.5,2.2
					c-0.5,0.7-1,1.3-1.5,1.9c-1,1.2-1.9,2.4-2.7,3.3c-0.9,0.9-1.7,1.7-2.3,2.3c-1.3,1.3-2,2-2,2c-0.1,0.1-0.3,0.1-0.4,0
					C573.9,348.1,573.9,347.9,574,347.8z"/>
			</g>
			<g>
				<path fill="#4E6C8C" d="M574.4,347.9C574.4,347.9,574.4,347.9,574.4,347.9c0-0.1,0-0.1,0-0.1L574.4,347.9
					c0.9,2.1,1.9,4.1,2.9,6.1c1,2,2.2,4,3.4,5.9c2.4,3.8,5.1,7.5,8.2,10.8c0.8,0.8,1.6,1.6,2.4,2.4c0.8,0.7,1.7,1.5,2.6,2.2
					c0.4,0.4,0.9,0.7,1.3,1c0.5,0.3,0.9,0.7,1.4,1l1.4,0.9l1.5,0.8c0.5,0.3,1,0.5,1.5,0.8c0.5,0.3,1,0.5,1.5,0.7
					c1,0.5,2.1,0.8,3.2,1.2c1.1,0.3,2.2,0.6,3.3,0.8c1.1,0.2,2.2,0.3,3.3,0.4l0,0c0.1,0,0.2,0.1,0.2,0.3c0,0.1-0.1,0.2-0.3,0.2
					c-1.1-0.1-2.3-0.1-3.4-0.3c-1.1-0.1-2.3-0.4-3.4-0.7c-1.1-0.3-2.2-0.7-3.3-1.1c-0.5-0.2-1.1-0.4-1.6-0.7
					c-0.5-0.3-1.1-0.5-1.5-0.8l-1.5-0.8l-1.5-0.9c-0.5-0.3-0.9-0.7-1.4-1c-0.5-0.3-0.9-0.7-1.4-1c-0.9-0.7-1.8-1.5-2.6-2.2
					c-0.8-0.8-1.7-1.6-2.4-2.4c-0.8-0.8-1.5-1.7-2.3-2.6c-0.7-0.9-1.4-1.8-2.1-2.7c-1.4-1.8-2.6-3.7-3.8-5.7c-2.3-3.9-4.4-8-6-12.3
					l0.1,0.1c0,0,0-0.1-0.1-0.1c0,0,0-0.1,0-0.2c0-0.1,0.1-0.3,0.3-0.3S574.4,347.8,574.4,347.9z"/>
			</g>
			<g>
				<path fill="#1E1606" d="M575.7,85.9c0,0,0.1,1-0.1,2.7c-0.1,0.9-0.4,1.9-0.8,3c-0.4,1.1-1,2.4-1.9,3.6c-0.8,1.3-1.9,2.5-3.1,3.7
					c-1.3,1.1-2.7,2.3-4.3,3.2c-0.8,0.5-1.6,1-2.5,1.4c-0.9,0.4-1.7,0.8-2.7,1.2c-1.8,0.7-3.7,1.4-5.6,1.9c-1.9,0.5-3.8,0.9-5.8,1.2
					c-1.9,0.3-3.8,0.6-5.6,0.8c-1.8,0.2-3.6,0.3-5.3,0.4c-1.7,0.1-3.3,0.1-4.8,0.1c-1.5,0-2.8,0-4-0.1c-1.2,0-2.2-0.1-3.1-0.1
					c-1.7-0.1-2.7-0.2-2.7-0.2c-0.1,0-0.1-0.1-0.1-0.1c0-0.1,0.1-0.1,0.1-0.1c0,0,1,0,2.7,0c0.9,0,1.9,0,3.1,0c1.2,0,2.5-0.1,4-0.1
					c1.5-0.1,3.1-0.1,4.7-0.2c1.7-0.1,3.4-0.3,5.2-0.5c1.8-0.2,3.7-0.5,5.6-0.8c1.9-0.3,3.8-0.8,5.7-1.3c1.9-0.5,3.7-1.1,5.5-1.8
					c0.9-0.3,1.8-0.8,2.6-1.1c0.9-0.4,1.7-0.9,2.4-1.3c1.6-0.9,3-2,4.2-3c1.2-1.1,2.3-2.3,3.1-3.5c0.9-1.2,1.4-2.4,1.9-3.4
					c0.4-1.1,0.7-2.1,0.9-2.9c0.3-1.7,0.3-2.6,0.3-2.6c0-0.1,0.1-0.2,0.2-0.2C575.6,85.8,575.7,85.8,575.7,85.9L575.7,85.9z"/>
			</g>
			<g>
				<path fill="#1E1606" d="M523.2,95c0,0,0,0.1,0,0.2c0,0.1,0,0.3,0.1,0.5c0,0.5,0.1,1.1,0.1,2c0,1.7-0.1,4.2-0.7,7.1
					c-0.3,1.4-0.7,3-1.2,4.6c-0.5,1.6-1.2,3.3-2,4.9c-0.4,0.8-0.9,1.7-1.3,2.5c-0.5,0.8-1,1.7-1.5,2.4c-1.1,1.6-2.3,3.2-3.6,4.6
					c-1.3,1.5-2.8,2.8-4.3,4.1c-0.8,0.6-1.5,1.3-2.3,1.8c-0.8,0.6-1.5,1.1-2.3,1.6c-1.6,1-3.1,1.9-4.6,2.7c-1.5,0.8-3,1.4-4.3,2
					c-1.3,0.6-2.6,1-3.7,1.4c-1.1,0.4-2.1,0.7-2.9,1c-1.6,0.5-2.6,0.8-2.6,0.8c-0.1,0-0.1,0-0.2-0.1c0-0.1,0-0.1,0.1-0.2l0,0
					c0,0,0.9-0.3,2.5-0.9c0.8-0.3,1.8-0.6,2.9-1.1c1.1-0.5,2.4-0.9,3.7-1.6c1.3-0.6,2.8-1.3,4.2-2.1c1.5-0.8,2.9-1.8,4.5-2.7
					c0.7-0.5,1.5-1.1,2.2-1.6c0.8-0.5,1.5-1.2,2.2-1.8c1.4-1.2,2.8-2.6,4.1-4c1.3-1.4,2.5-2.9,3.6-4.5c0.6-0.8,1-1.6,1.5-2.4
					c0.5-0.8,0.9-1.6,1.3-2.4c0.8-1.6,1.5-3.2,2-4.8c0.6-1.6,1-3.1,1.3-4.5c0.6-2.8,0.9-5.3,1-7c0-0.8,0-1.5,0-2c0-0.2,0-0.4,0-0.5
					c0-0.1,0-0.2,0-0.2l0,0c0-0.1,0-0.2,0.1-0.2C523.1,94.8,523.2,94.9,523.2,95z"/>
			</g>
			<g>
				<path fill="#1E1606" d="M482.8,128.4c0,0,0.3,0.8,0.7,2.3c0.4,1.5,1.1,3.6,1.7,6.2c0.6,2.6,1.3,5.6,1.8,8.9
					c0.3,1.6,0.5,3.4,0.7,5.1c0.2,1.7,0.4,3.5,0.5,5.3c0.1,1.8,0.2,3.6,0.2,5.3c0,1.8,0,3.5-0.1,5.1c-0.1,1.7-0.3,3.3-0.5,4.8
					c-0.2,1.5-0.5,2.9-0.7,4.3c-0.3,1.3-0.6,2.5-0.9,3.5c-0.3,1-0.6,1.9-0.9,2.7c-0.6,1.4-0.9,2.3-0.9,2.3c0,0.1-0.1,0.1-0.2,0.1
					c-0.1,0-0.1-0.1-0.1-0.2l0,0c0,0,0.3-0.8,0.8-2.3c0.3-0.7,0.5-1.6,0.7-2.7c0.3-1,0.5-2.2,0.8-3.5c0.2-1.3,0.5-2.7,0.6-4.2
					c0.2-1.5,0.2-3.1,0.4-4.7c0.1-1.7,0.1-3.4,0.1-5.1c0-1.7-0.1-3.5-0.2-5.3c-0.1-1.8-0.3-3.5-0.5-5.2c-0.2-1.7-0.4-3.4-0.7-5.1
					c-0.5-3.3-1-6.3-1.6-8.9c-0.6-2.6-1-4.7-1.4-6.2c-0.4-1.5-0.6-2.3-0.6-2.3c0-0.1,0-0.2,0.1-0.2
					C482.7,128.3,482.8,128.3,482.8,128.4z"/>
			</g>
			<g>
				<path fill="#D3A289" d="M698.7,437c0,0-0.3,0.4-0.9,1.2c-0.3,0.4-0.6,0.9-1,1.5c-0.4,0.6-0.8,1.3-1.2,2.1
					c-0.9,1.6-1.8,3.6-2.8,5.9c-0.9,2.3-1.8,5-2.7,8c-0.8,3-1.6,6.3-2.3,9.8c-0.7,3.5-1.2,7.2-1.6,11.1c-0.4,3.9-0.7,7.9-0.8,12
					c-0.1,4.1-0.1,8.2,0.1,12.4c0.2,4.1,0.6,8.3,1.2,12.3c0.6,4,1.5,8,2.8,11.6c0.7,1.8,1.4,3.6,2.3,5.2c0.9,1.6,1.9,3.2,2.8,4.7
					c1.9,3,3.9,5.7,5.8,8.2c1.9,2.5,3.8,4.6,5.5,6.5c1.7,1.9,3.3,3.4,4.6,4.7c2.6,2.5,4.3,3.7,4.3,3.7c0.1,0,0.1,0.1,0,0.2
					c0,0.1-0.1,0.1-0.2,0c0,0-1.7-1.2-4.4-3.7c-1.4-1.2-2.9-2.8-4.7-4.6c-1.7-1.8-3.7-4-5.6-6.4c-2-2.4-4-5.2-5.9-8.2
					c-1-1.5-2-3.1-2.9-4.7c-1-1.7-1.7-3.4-2.4-5.3c-1.3-3.7-2.2-7.7-2.9-11.7c-0.7-4.1-1.1-8.2-1.3-12.4c-0.2-4.2-0.2-8.4-0.1-12.4
					c0.1-4.1,0.5-8.1,0.9-12c0.5-3.9,1-7.6,1.7-11.1c0.7-3.5,1.5-6.8,2.4-9.8c0.5-1.5,0.9-2.9,1.4-4.3c0.5-1.3,0.9-2.6,1.5-3.8
					c1-2.3,2-4.3,2.9-5.9c0.5-0.8,0.9-1.5,1.3-2.1c0.4-0.6,0.8-1.1,1-1.5c0.6-0.8,0.9-1.2,0.9-1.2c0.1-0.1,0.2-0.1,0.2,0
					C698.7,436.8,698.7,436.9,698.7,437z"/>
			</g>
			<g>
				<path fill="#7A4426" d="M830.4,503.2c0,0,0.3-0.5,0.8-1.5c0.2-0.5,0.6-1,0.9-1.7c0.4-0.6,0.8-1.3,1.3-2.1
					c0.5-0.7,1.1-1.5,1.8-2.3c0.3-0.4,0.7-0.8,1-1.2c0.4-0.4,0.8-0.8,1.2-1.2c0.4-0.4,0.8-0.8,1.2-1.2c0.4-0.4,0.8-0.8,1.3-1.2
					c0.5-0.4,0.9-0.8,1.4-1.1c0.5-0.4,1-0.7,1.5-1c0.5-0.4,1-0.6,1.6-0.9c0.5-0.3,1-0.6,1.6-0.9c0.5-0.3,1.1-0.5,1.6-0.8
					c0.5-0.2,1.1-0.4,1.6-0.6c1-0.5,2.1-0.7,3.1-1c1-0.3,2-0.4,2.9-0.6c0.9-0.1,1.7-0.2,2.5-0.3c0.7-0.1,1.4-0.1,1.9-0.1
					c1.1,0,1.7-0.1,1.7-0.1c0.1,0,0.1,0.1,0.1,0.1c0,0.1,0,0.1-0.1,0.1l0,0c0,0-0.6,0.1-1.6,0.2c-0.5,0.1-1.2,0.1-1.9,0.2
					c-0.7,0.1-1.5,0.3-2.4,0.4c-0.9,0.2-1.8,0.4-2.8,0.7c-1,0.3-2,0.6-3,1.1c-0.5,0.2-1,0.4-1.6,0.6c-0.5,0.3-1,0.5-1.5,0.8
					c-0.5,0.2-1,0.6-1.5,0.9c-0.5,0.3-1,0.6-1.5,0.9l-1.5,1c-0.5,0.4-0.9,0.7-1.4,1.1c-0.5,0.3-0.9,0.8-1.3,1.1
					c-0.4,0.4-0.8,0.8-1.2,1.2c-0.8,0.8-1.5,1.6-2.2,2.3c-0.7,0.8-1.3,1.5-1.8,2.2c-0.5,0.7-1,1.4-1.4,2c-0.4,0.6-0.8,1.1-1,1.6
					c-0.6,0.9-0.9,1.4-0.9,1.4c0,0.1-0.2,0.1-0.2,0.1C830.4,503.4,830.4,503.3,830.4,503.2z"/>
			</g>
			<g>
				<path fill="#7A4426" d="M830.5,503.7C830.5,503.7,830.5,503.7,830.5,503.7L830.5,503.7C830.5,503.6,830.5,503.6,830.5,503.7
					c0-0.1,0-0.2-0.1-0.2l0,0l0,0l-0.4-3.2c-0.1-1.1-0.2-2.2-0.3-3.2c-0.1-1.1-0.1-2.2-0.1-3.3c0-1.1,0.1-2.2,0.1-3.3
					c0.1-1.1,0.2-2.2,0.4-3.2c0.2-1.1,0.5-2.1,0.7-3.2c0.4-1,0.6-2.1,1.1-3.1c0.4-1,0.9-2,1.5-3c0.2-0.5,0.6-0.9,0.9-1.4
					c0.3-0.4,0.6-0.9,1-1.4c0.6-0.8,1.4-1.7,2.2-2.4c0.8-0.7,1.6-1.5,2.5-2.1c0.9-0.7,1.8-1.2,2.8-1.7c1-0.5,2-1,3-1.4
					c1-0.4,2-0.8,3.1-1c1-0.3,2.1-0.5,3.2-0.7c1.1-0.2,2.1-0.3,3.2-0.5c0.1,0,0.1,0,0.1,0.1c0,0.1,0,0.1-0.1,0.1
					c-1.1,0.2-2.1,0.4-3.2,0.7c-1,0.3-2.1,0.5-3.1,0.9c-1,0.3-2,0.7-3,1.1c-1,0.4-1.9,0.9-2.9,1.4c-0.9,0.5-1.8,1.1-2.7,1.8
					c-0.9,0.6-1.7,1.3-2.4,2.1c-0.8,0.8-1.5,1.5-2.1,2.4c-0.4,0.4-0.6,0.9-0.9,1.3c-0.3,0.4-0.6,0.9-0.8,1.3l-0.8,1.4
					c-0.3,0.5-0.4,1-0.7,1.4c-0.5,1-0.7,2-1.1,3c-0.3,1-0.6,2.1-0.7,3.1c-0.2,1-0.3,2.1-0.5,3.2c-0.1,1.1-0.2,2.1-0.2,3.2
					c0,1.1,0,2.1,0,3.2c0,1.1,0.1,2.1,0.1,3.2c0.1,1.1,0.2,2.1,0.2,3.3l0-0.1c0,0.1,0,0.1,0.1,0.2c0,0,0,0.1,0,0.1c0,0,0,0.1,0,0.1
					c0,0,0,0.1,0,0.1c0,0.1-0.1,0.1-0.2,0.1C830.5,503.9,830.4,503.8,830.5,503.7L830.5,503.7z"/>
			</g>
			<g>
				<path fill="#7A4426" d="M835.5,478.1c0,0-0.1-0.8-0.2-2.2c-0.1-1.4-0.2-3.5,0-6c0.2-2.5,0.6-5.3,1.5-8.3c0.4-1.4,1-3,1.7-4.5
					c0.3-0.8,0.7-1.5,1.1-2.2c0.4-0.7,0.8-1.4,1.3-2.1c0.5-0.7,0.9-1.4,1.5-2l0.8-1l0.8-0.9c1.1-1.2,2.3-2.3,3.6-3.2
					c1.2-0.9,2.5-1.7,3.8-2.4c0.3-0.2,0.6-0.3,0.9-0.5c0.3-0.1,0.6-0.3,0.9-0.4c0.6-0.3,1.2-0.6,1.8-0.8c1.2-0.4,2.2-0.8,3.2-1
					c1-0.3,1.8-0.5,2.5-0.6c1.4-0.3,2.2-0.4,2.2-0.4c0.1,0,0.1,0,0.1,0.1c0,0.1,0,0.1-0.1,0.1l0,0c0,0-0.8,0.2-2.2,0.5
					c-0.7,0.1-1.5,0.4-2.5,0.7c-1,0.3-2,0.7-3.1,1.2c-0.6,0.2-1.1,0.5-1.7,0.8c-0.3,0.1-0.6,0.3-0.9,0.4c-0.3,0.2-0.6,0.3-0.9,0.5
					c-1.2,0.7-2.4,1.5-3.6,2.4c-1.2,0.9-2.4,2-3.4,3.1l-0.8,0.9l-0.7,0.9c-0.5,0.6-0.9,1.3-1.4,2c-0.5,0.7-0.8,1.4-1.3,2.1
					c-0.4,0.7-0.8,1.4-1.1,2.1c-0.7,1.4-1.2,2.9-1.7,4.4c-0.9,2.9-1.4,5.7-1.7,8.1c-0.3,2.4-0.3,4.5-0.3,5.9c0,1.4,0.1,2.2,0.1,2.2
					c0,0.1-0.1,0.2-0.2,0.2C835.5,478.3,835.5,478.2,835.5,478.1z"/>
			</g>
		</g>
	</g>
	<g>
		<path fill="#AC8471" d="M468.9,193.5c0,0,0.2-0.2,0.7-0.5c0.4-0.3,1.1-0.7,1.9-1.1c0.4-0.2,0.9-0.4,1.4-0.5
			c0.5-0.2,1.1-0.3,1.6-0.4c0.3,0,0.6,0,0.9-0.1c0.3,0,0.6,0,0.9,0c0.3,0,0.6,0.1,0.9,0.1l0.9,0.2l0.5,0.1l0.4,0.2
			c0.3,0.1,0.6,0.3,0.8,0.4c0.5,0.3,1,0.7,1.5,1c0.4,0.4,0.8,0.8,1.2,1.2c0.3,0.4,0.6,0.8,0.9,1.2c0.1,0.2,0.3,0.4,0.4,0.5
			c0.1,0.2,0.2,0.4,0.3,0.5c0.2,0.3,0.3,0.6,0.4,0.9c0.2,0.5,0.3,0.8,0.3,0.8c0,0.1,0,0.1-0.1,0.2c-0.1,0-0.1,0-0.2,0l0,0
			c0,0-0.2-0.2-0.5-0.7c-0.1-0.2-0.3-0.5-0.5-0.8c-0.1-0.1-0.2-0.3-0.3-0.5c-0.1-0.2-0.3-0.3-0.4-0.5c-0.3-0.3-0.6-0.7-0.9-1.1
			c-0.4-0.3-0.8-0.7-1.1-1c-0.4-0.3-0.9-0.6-1.4-0.9c-0.3-0.1-0.5-0.2-0.8-0.3l-0.4-0.2l-0.4-0.1l-0.8-0.2c-0.3,0-0.6-0.1-0.8-0.1
			c-0.3,0-0.6,0-0.8,0c-0.3,0-0.5,0-0.8,0c-0.5,0.1-1,0.1-1.5,0.3c-0.5,0.1-0.9,0.3-1.3,0.4c-0.8,0.3-1.5,0.6-1.9,0.8
			c-0.5,0.2-0.7,0.4-0.7,0.4c-0.1,0-0.2,0-0.2-0.1C468.8,193.7,468.8,193.6,468.9,193.5L468.9,193.5z"/>
	</g>
	<g>
		<path fill="#D3A289" d="M765.1,528.7c0,0,0.1,0,0.2,0.1c0.1,0,0.3,0.1,0.5,0.2c0.4,0.2,1,0.5,1.6,0.9c0.3,0.2,0.6,0.5,0.9,0.8
			c0.3,0.3,0.6,0.6,0.9,1.1c0.3,0.4,0.5,0.8,0.8,1.3c0.2,0.4,0.4,0.9,0.6,1.4c0.1,0.5,0.2,1,0.3,1.5c0,0.5,0.1,1,0.1,1.5
			c0,0.5-0.1,0.9-0.1,1.3c-0.1,0.4-0.2,0.8-0.2,1.2c-0.1,0.4-0.1,0.7-0.3,1c-0.1,0.3-0.2,0.5-0.2,0.7c-0.1,0.4-0.2,0.6-0.2,0.6
			c0,0.1-0.2,0.2-0.3,0.2c-0.1,0-0.2-0.2-0.2-0.3l0,0c0,0,0-0.2,0.1-0.6c0.1-0.4,0.3-1,0.3-1.7c0-0.3,0.1-0.7,0.1-1.1
			c0-0.4,0-0.8,0-1.3c0-0.4-0.1-0.9-0.1-1.3c0-0.5-0.2-0.9-0.3-1.3c-0.2-0.4-0.3-0.9-0.5-1.3c-0.2-0.4-0.4-0.8-0.7-1.1
			c-0.2-0.4-0.5-0.7-0.7-1c-0.3-0.3-0.5-0.6-0.8-0.8c-0.5-0.5-1-0.8-1.3-1c-0.2-0.1-0.3-0.2-0.4-0.2c-0.1-0.1-0.1-0.1-0.1-0.1l0,0
			c-0.1-0.1-0.2-0.2-0.1-0.4C764.8,528.7,765,528.6,765.1,528.7z"/>
	</g>
	<path fill="#1E120D" d="M772.9,487.2c0,2.5-4.2,4.5-9.3,4.5c-5.1,0-9.3-2-9.3-4.5c0-2.5,4.2-4.5,9.3-4.5
		C768.7,482.7,772.9,484.7,772.9,487.2z"/>
	<path fill="#1E120D" d="M772.4,441c0,2.5-4.2,4.5-9.3,4.5c-5.1,0-9.3-2-9.3-4.5c0-2.5,4.2-4.5,9.3-4.5
		C768.3,436.4,772.4,438.5,772.4,441z"/>
	<g>
		<path fill="#1E120D" d="M725.9,449.8c0,0-0.3,0.5-0.9,1.3c-0.3,0.4-0.6,1-0.9,1.6c-0.3,0.6-0.7,1.3-1,2.1c-0.4,0.8-0.7,1.7-1,2.6
			c-0.2,0.5-0.3,1-0.4,1.5c-0.1,0.5-0.3,1-0.4,1.5c-0.1,0.5-0.2,1.1-0.3,1.6c-0.1,0.5-0.1,1.1-0.2,1.7c-0.2,1.1-0.1,2.3-0.1,3.4
			c0,1.1,0.2,2.3,0.3,3.4c0.2,1.1,0.4,2.2,0.7,3.2c0.3,1,0.6,2,0.9,3c0.3,0.9,0.7,1.8,1.1,2.6c0.3,0.8,0.6,1.5,1,2.1
			c0.3,0.6,0.6,1.2,0.9,1.6c0.5,0.9,0.8,1.4,0.8,1.4l0,0c0,0.1,0,0.1-0.1,0.2c-0.1,0-0.1,0-0.2,0c0,0-0.3-0.5-0.9-1.3
			c-0.3-0.4-0.6-1-1-1.5c-0.4-0.6-0.8-1.3-1.1-2.1c-0.4-0.8-0.9-1.6-1.2-2.6c-0.3-1-0.7-1.9-1.1-3c-0.2-1.1-0.5-2.2-0.7-3.3
			c-0.1-1.2-0.3-2.3-0.3-3.5c0-1.2,0-2.4,0.1-3.5c0.1-0.6,0.1-1.2,0.2-1.7c0.1-0.6,0.2-1.1,0.3-1.6c0.2-1.1,0.6-2.1,0.9-3.1
			c0.4-0.9,0.7-1.8,1.1-2.6c0.4-0.8,0.8-1.5,1.1-2.1c0.4-0.6,0.7-1.1,1-1.5c0.3-0.4,0.6-0.7,0.7-0.9c0.2-0.2,0.3-0.3,0.3-0.3l0,0
			c0.1-0.1,0.2-0.1,0.2,0C726,449.6,726,449.7,725.9,449.8z"/>
	</g>
	<g>
		<path fill="#D3A289" d="M783.1,454.5c0,0-3.4-0.3-8.6-0.7c-5.1-0.4-12-1-18.8-1.2c-3.4-0.1-6.9-0.2-10,0c-0.8,0.1-1.6,0.1-2.3,0.2
			c-0.7,0.1-1.5,0.3-2,0.6c-0.3,0.2-0.3,0.2-0.5,0.6c-0.2,0.3-0.3,0.6-0.4,0.9c-0.3,0.6-0.5,1.2-0.7,1.8c-0.8,2.4-1.3,4.5-1.6,6
			c-0.3,1.5-0.5,2.3-0.5,2.3c0,0.1-0.2,0.2-0.3,0.2c-0.1,0-0.2-0.2-0.2-0.3c0,0,0.1-0.9,0.4-2.3c0.3-1.5,0.7-3.6,1.5-6.1
			c0.2-0.6,0.4-1.3,0.7-1.9c0.1-0.3,0.3-0.7,0.4-1c0.1-0.2,0.1-0.3,0.3-0.5c0.2-0.2,0.4-0.3,0.5-0.5c0.8-0.4,1.5-0.6,2.3-0.7
			c0.8-0.1,1.6-0.2,2.4-0.3c3.2-0.2,6.7-0.2,10.1,0c6.9,0.3,13.7,0.9,18.9,1.4c5.1,0.5,8.5,1,8.5,1c0.1,0,0.2,0.2,0.2,0.3
			C783.4,454.4,783.3,454.5,783.1,454.5z"/>
	</g>
	<path fill="#604320" d="M802.5,490.3c-0.2-2.4-0.1-5.1-1.4-7.2c-1.3-2.3-4.8-2.3-6.1,0c-1.2,2-1.2,4.5-1.5,6.7
		c-0.1,1.1-0.3,2.1-0.3,3.2c0,0.4-0.1,0.8-0.1,1.2c0,0.5,0,0.6,0,0.5c-0.7,6.5,8.7,7.6,9.4,0.9C802.7,493.9,802.6,492.1,802.5,490.3
		z"/>
	<path fill="#604320" d="M794.6,440.1c-0.5-2.6-1-5.2-2.2-7.5c-1.7-3.3-5.8-1.3-6.1,1.7c-0.3,2-0.1,4.2-0.1,6.2
		c-0.1,2.2-0.6,5.2,0.1,7.3c1.3,3.6,5.6,4.1,7.8,1C795.6,446.5,795.1,442.7,794.6,440.1z"/>
	<path fill="#261D0E" d="M547.2,141c-2.3-3.8-21.9,0.7-26.4,13.7c-0.7,2.1,6.7-4.1,13.5-6.5C540.3,146.2,551.7,148.3,547.2,141z"/>
	<path fill="#261D0E" d="M584.4,144.9c1.3-3.4,17.4-2.8,23,6.9c0.9,1.5-5.9-2.3-11.7-3.1C590.7,148,582.1,151.4,584.4,144.9z"/>
	<g>
		<path fill="#1E120D" d="M593.2,192.4c-2.6-0.2-4.4-4.6-4-9.9c0.4-5.3,2.8-9.4,5.4-9.2c2.6,0.2,4.4,4.6,4,9.9
			C598.2,188.5,595.8,192.6,593.2,192.4z"/>
		<path fill="#1E120D" d="M594.8,173.8c0,0,0.3,0.1,0.7,0.2c0.4,0.1,1,0.1,1.7,0.3c0.3,0.1,0.7,0,1.1,0.1c0.4,0,0.7,0.1,1.1,0
			c0.4,0,0.8-0.1,1.2,0c0.4,0,0.8-0.2,1.2-0.3c0.4-0.1,0.8,0,1.2-0.3c0.4-0.2,0.8-0.3,1.2-0.4c0.4-0.2,0.8-0.2,1.2-0.4
			c0.4-0.2,0.7-0.4,1.1-0.5c1.4-0.6,2.5-0.9,2.5-0.9l0.1,0c0.3-0.1,0.6,0.1,0.7,0.4c0,0.1,0,0.3,0,0.4c0,0-0.5,1-1.6,2.4
			c-0.5,0.7-1.2,1.5-2.2,2c-0.5,0.3-1,0.6-1.5,0.9c-0.5,0.3-1.2,0.4-1.8,0.6c-0.6,0.1-1.2,0.3-1.9,0.3c-0.6,0-1.3-0.1-1.8-0.2
			c-0.6,0-1.1-0.3-1.6-0.5c-0.5-0.2-1-0.4-1.3-0.7c-1.5-1.1-2.1-2.3-2.1-2.2c-0.3-0.3-0.3-0.7-0.1-1
			C594.1,173.6,594.5,173.6,594.8,173.8z"/>
	</g>
	<g>
		<path fill="#1E120D" d="M541.1,189.6c2.6,0.2,5-4,5.3-9.3c0.3-5.3-1.5-9.7-4.1-9.8c-2.6-0.2-5,4-5.3,9.2
			C536.7,185,538.5,189.4,541.1,189.6z"/>
		<path fill="#1E120D" d="M542.1,170.9c0,0-0.3,0.1-0.7,0.1c-0.4,0.1-1,0-1.7,0c-0.3,0-0.7-0.1-1.1-0.1c-0.4,0-0.7,0-1.1-0.1
			c-0.4-0.1-0.8-0.2-1.1-0.2c-0.4-0.1-0.8-0.3-1.1-0.4c-0.4-0.2-0.8-0.1-1.2-0.4c-0.4-0.2-0.8-0.4-1.1-0.6c-0.4-0.2-0.8-0.3-1.1-0.5
			c-0.3-0.2-0.7-0.4-1-0.7c-1.3-0.8-2.3-1.2-2.3-1.2l-0.1,0c-0.3-0.1-0.6,0-0.7,0.3c-0.1,0.1-0.1,0.3,0,0.4c0,0,0.3,1.1,1.2,2.6
			c0.4,0.8,1,1.6,1.9,2.3c0.4,0.4,0.9,0.7,1.4,1.1c0.4,0.4,1.1,0.5,1.7,0.8c0.6,0.2,1.2,0.4,1.8,0.6c0.6,0.1,1.3,0.1,1.9,0.1
			c0.6,0.1,1.2-0.1,1.7-0.3c0.5-0.2,1-0.2,1.4-0.5c1.7-0.9,2.4-2,2.4-1.9c0.3-0.2,0.4-0.7,0.2-1
			C542.9,170.8,542.5,170.7,542.1,170.9z"/>
	</g>
	
		<linearGradient id="SVGID_1_" gradientUnits="userSpaceOnUse" x1="524.7594" y1="113.0974" x2="511.6833" y2="113.2755" gradientTransform="matrix(0.9892 0.1466 -0.1466 0.9892 72.4915 7.7063)">
		<stop  offset="0" style="stop-color:#E8AA9A"/>
		<stop  offset="1" style="stop-color:#E1A697;stop-opacity:0"/>
	</linearGradient>
	<path fill="url(#SVGID_1_)" d="M579.4,195.5c-0.3-3-6.8-8.5-11.4-5.3c-4.6,3.3-1,12.7,3.3,12.6
		C575.7,202.8,579.7,198.4,579.4,195.5z"/>
	<g>
		<path fill="#AC8471" d="M573.2,152c0,0,0,3.9,0,9.7c0,2.9,0,6.3,0,9.9c0,3.6,0.1,7.5,0.2,11.3c0.1,1.9,0.1,3.9,0.4,5.7
			c0,0.2,0.1,0.4,0.1,0.6c0,0.1,0.1,0.2,0,0.1c0,0,0.2,0.1,0.3,0.1c0.4,0.2,0.9,0.5,1.3,0.8c0.8,0.5,1.5,1.1,2.2,1.7
			c0.7,0.6,1.3,1.3,1.9,2c0.5,0.7,1,1.6,1,2.6c0,0.1,0,0.2,0,0.4l-0.1,0.3l-0.1,0.6c-0.2,0.4-0.3,0.8-0.5,1.2l-0.3,0.5L579,200
			c-0.2,0.3-0.5,0.6-0.8,0.8c-1.1,1-2.3,1.7-3.5,2.1c-1.1,0.4-2.2,0.5-3.1,0.4c-0.4,0-0.8-0.1-1.1-0.2c-0.3-0.1-0.6-0.2-0.8-0.3
			c-0.4-0.3-0.6-0.4-0.6-0.4c-0.1,0-0.1-0.1,0-0.2c0-0.1,0.1-0.1,0.2,0l0,0c0,0,0.2,0.1,0.6,0.3c0.2,0.1,0.5,0.2,0.8,0.3
			c0.3,0,0.7,0.1,1.1,0.1c1.6,0.1,4.1-0.6,6.1-2.6c0.2-0.3,0.5-0.5,0.7-0.8l0.3-0.4l0.3-0.5c0.2-0.3,0.3-0.7,0.4-1l0.1-0.6l0.1-0.3
			c0,0,0-0.2,0-0.2c0-0.7-0.4-1.4-0.9-2.1c-0.5-0.7-1.1-1.3-1.8-1.9c-0.7-0.6-1.4-1.1-2.1-1.6c-0.4-0.3-0.8-0.5-1.1-0.7
			c-0.1-0.1-0.2-0.1-0.3-0.2c-0.3-0.3-0.3-0.4-0.4-0.5c-0.1-0.3-0.1-0.5-0.2-0.8c-0.3-1.9-0.4-3.9-0.5-5.8
			c-0.1-3.9-0.1-7.7-0.1-11.4c0-3.6,0.1-7,0.2-9.9c0.1-2.9,0.2-5.3,0.2-7c0.1-1.7,0.1-2.7,0.1-2.7c0-0.1,0.1-0.2,0.2-0.2
			C573.1,151.8,573.2,151.9,573.2,152z"/>
	</g>
	<path fill="#E5A0A0" d="M536.1,206.5c1.4-9.3-5-17.9-14.3-19.3c-9.3-1.4-17.9,5-19.3,14.3c-1.4,9.3,5,17.9,14.3,19.3
		C526.2,222.2,534.8,215.8,536.1,206.5z"/>
	<g>
		<path fill="#1E120D" d="M567.8,223.7c0,0-0.7,0.3-2,0.7c-1.3,0.4-3.2,1-5.5,1.3c-2.3,0.4-5,0.7-8,0.6c-1.5,0-3-0.2-4.5-0.5
			c-1.5-0.3-3.1-0.6-4.5-1.1c-0.7-0.2-1.5-0.6-2.2-0.8c-0.7-0.3-1.4-0.6-2.1-1c-0.7-0.4-1.4-0.7-2-1.2c-0.6-0.4-1.3-0.8-1.8-1.3
			c-0.3-0.2-0.6-0.5-0.9-0.7c-0.3-0.2-0.5-0.5-0.8-0.7c-0.5-0.5-1-1-1.5-1.5c-0.9-1-1.7-2-2.4-2.9c-0.6-1-1.3-1.8-1.7-2.7
			c-0.5-0.8-0.9-1.5-1.2-2.2c-0.6-1.2-0.9-1.9-0.9-1.9c-0.1-0.1,0-0.3,0.1-0.4c0.1-0.1,0.3,0,0.3,0.1l0,0c0,0,0.4,0.7,1,1.9
			c0.3,0.6,0.8,1.3,1.2,2.1c0.5,0.8,1.1,1.6,1.8,2.6c0.7,0.9,1.5,1.9,2.4,2.8c0.4,0.5,0.9,0.9,1.5,1.4c0.3,0.2,0.5,0.5,0.8,0.7
			c0.3,0.2,0.6,0.4,0.8,0.6c0.6,0.5,1.2,0.9,1.8,1.2c0.6,0.4,1.3,0.8,1.9,1.1c0.6,0.4,1.4,0.6,2,1c0.7,0.3,1.4,0.6,2.1,0.8
			c1.4,0.5,2.9,0.9,4.4,1.1c1.5,0.3,2.9,0.4,4.4,0.5c2.9,0.1,5.5-0.1,7.8-0.4c2.3-0.3,4.1-0.8,5.4-1.1c1.3-0.4,2-0.6,2-0.6
			c0.1-0.1,0.3,0,0.3,0.2C568,223.4,567.9,223.6,567.8,223.7z"/>
	</g>
	<path fill="#D3A289" d="M671.5,540.5c-1.4-7.7-9.3-17.4-17.2-18.7c-1.9-0.3-3,2-1.3,3.2c4.9,3.4,8.9,7.6,11.8,12.7
		c1.6,2.9,2.9,5.9,2.8,9.3c-0.1,3.9-4,5.9-6.7,8c-1,0.8-0.8,2.4,0.7,2.5C671.2,557.6,672.9,548.2,671.5,540.5z"/>
	<path fill="#FFFFFF" d="M514.3,48.5c-1-0.8-2.2,0.5-2,1.5c0.3,1.6,0.7,3.1,1.1,4.6c0.6,1.9,0.6,3.8,1.1,5.7
		c1.1,3.4,5.5,2.4,5.9-0.8C520.9,55.3,517.5,50.9,514.3,48.5z"/>
	<path fill="#FFFFFF" d="M509.5,61.1c-1-2.5-2.4-4.5-4.7-6c-1.3-0.8-2.8,0.8-2.1,2.1c1.5,2.5,2.1,5,2.3,7.9c0.2,2.1,1.2,5.6,4,4.1
		C511.5,67.8,510.2,63.2,509.5,61.1z"/>
	<path fill="#FFFFFF" d="M556.6,82.1c-1.3-0.8-2.7,0.7-2,2c0.7,1.3,1.5,2.6,1.5,4.1c0,1.3-0.9,2.4-0.9,3.8c0,0.8,0.7,1.7,1.7,1.7
		c2.8-0.2,4.4-2.7,4.2-5.4C560.8,85.5,558.8,83.4,556.6,82.1z"/>
	<path fill="#FFFFFF" d="M549.2,85.6c-0.4-0.8-1.6-0.8-2.1,0c-1.2,2-1.9,4.4-1.2,6.7c0.3,0.9,1.1,1.1,1.9,0.8
		C550.9,91.8,550.6,88.1,549.2,85.6z"/>
	<path fill="#FFFFFF" d="M596.2,93.4c-0.4-2.2-1.6-3.7-3.4-5c-0.7-0.5-1.3,0.3-1.2,0.9c0.2,1.3,0.2,2.8-0.2,4.1
		c-0.2,0.6-0.7,1.1-0.8,1.8c-0.2,0.9-0.3,1.7-0.3,2.6c-0.1,1.6,1.8,2.5,3.1,1.8C595.8,98.2,596.7,96,596.2,93.4z"/>
	<path fill="#FFFFFF" d="M504.2,107.1c-0.2-0.2-0.5,0-0.5,0.2c-0.3,2.9-2.5,5.5-3.9,7.9c-0.7,1.2,0.5,2.6,1.8,2.3
		c2.4-0.5,3.7-2.4,4.3-4.7C506.4,110.6,505.5,108.8,504.2,107.1z"/>
	<path fill="#FFFFFF" d="M838.9,415.6c-5.3,3.2-9.4,11.7-7,17.8c0.5,1.1,2.3,1.8,3,0.4c1.1-2.4,1.8-4.9,3.1-7.2
		c1.4-2.5,3.3-4.5,5-6.8C844.8,417.2,841.3,414.1,838.9,415.6z"/>
	<path fill="#FFFFFF" d="M848.3,421.6c-4.3,0.9-7.3,4-8.9,8c-0.7,1.8,1.8,2.8,3,1.8c1.3-1.1,2.6-2.2,4.1-3.1c1.7-1,2.8-2.4,3.9-4
		C851.3,422.8,849.8,421.3,848.3,421.6z"/>
	<path fill="#FFFFFF" d="M883.2,451.1c-1.8-3.4-4.7-4.4-8.4-4.3c-2.6,0.1-5.9,0.8-7.4,3.1c-0.7,1,0.2,2.2,1.3,2.3
		c1.8,0.2,3.5,0.3,5.2,0.8c1.3,0.3,2.4,0.9,3.7,1.1c1.3,0.3,2.5,0.1,3.8,0C883,454.1,883.9,452.5,883.2,451.1z"/>
	<path fill="#FFFFFF" d="M874.5,454.4c-1.1-0.4-2.5,0.3-3.1,1.2c-0.8,1.4-0.2,2.8,1,3.7c1,0.8,1.9,1.8,2.8,2.6
		c1.3,1.2,2.6,1.6,4.3,1.7c0.9,0.1,1.9-0.9,1.9-1.9C881,457.8,878,455.7,874.5,454.4z"/>
	<path fill="#FFFFFF" d="M871.5,471.4c-2.4-3.6-7-5.3-11-3.3c-1.1,0.5-1,2.2,0,2.7c2.8,1.5,5.8,2.8,8.9,3.3
		C870.9,474.4,872.5,472.9,871.5,471.4z"/>
	<path fill="#FFFFFF" d="M848.6,502.8c-3-1.5-6.4,0.3-8.3,2.7c-1.9,2.5-2,5.6-1.3,8.5c0.3,1.2,2,1.1,2.4,0c0.5-1.8,1.6-3.5,2.9-4.9
		c1.4-1.4,3.4-2.4,4.6-4C849.4,504.4,849.5,503.2,848.6,502.8z"/>
	<path fill="#FFFFFF" d="M854.6,512c-5.5-0.1-9,5-10.3,9.8c-0.4,1.5,1.7,3,2.8,1.6c2.7-3.3,6.5-5.5,8.9-9
		C856.7,513.4,855.7,512,854.6,512z"/>
</g>
</svg>
