<?xml version="1.0" encoding="utf-8"?>
<!-- Generator: Adobe Illustrator 18.1.1, SVG Export Plug-In . SVG Version: 6.00 Build 0)  -->
<svg version="1.1" id="Layer_1" xmlns="http://www.w3.org/2000/svg" xmlns:xlink="http://www.w3.org/1999/xlink" x="0px" y="0px"
	 viewBox="0 0 960 960" enable-background="new 0 0 960 960" xml:space="preserve">
<g>
	<g>
		<path fill="#2C73B5" d="M527,626.4h-41.7h-59.7H127.8c-11.9,0-21.5-9.6-21.5-21.5c0-6,2.4-11.3,6.3-15.2c3.7-3.7,8.7-6.1,14.3-6.3
			c-5.2,4.4-6.2,8.2-5,9.8c2,2.6,34-8.5,43.8-4.5c9.8,3.9,145.6,23.5,154.8-2c30.4,1.7,64.6,2.6,100.7,2.8
			c73.2,0.5,154.2-1.5,227.3-4.3c15-0.6,29.7-1.2,43.9-1.8H904c4.1,1.1,8,1.9,11.2,2.3c7.1,3.5,11.9,10.8,11.9,19.2
			c0,6-2.4,11.4-6.3,15.2c-3.9,3.9-9.3,6.3-15.2,6.3H602.9H527z"/>
		<path fill="#775020" d="M272.9,470.5c1.2,2.6,11.2,23.6,22.2,33c0,0-13.6,1.3-28.8-2.7c-13.3-3.5-27.9-11-35.6-26.9
			c-5.8-12.1-9.1-26.7-11.4-41.9c-4.3-27.8-5.7-57.6-14.5-77.5c-13.7-30.9-47.5-42.1-59.3-31.9l-1.4,0.5c-0.9-1.6-2.2-3.3-3.8-4.5
			c-3.5-2.6-9-6.9-14-8l0.3-1.1c0,0,7.8-49,70.5-35.3s86.2,105.8,88.2,148.9c0.2,3.4,0.4,6.7,0.7,9.8c3.8,37.1,17.9,58.8,14.3,58.8
			C296.4,491.9,280.3,485.2,272.9,470.5z"/>
		<path fill="#775020" d="M108.3,398.8c0.2,1,5.1,19.2-2.5,25.9c-7.8,6.9-22.5-4.9-22.5-4.9s2.4,26.7-1.8,34.8
			c-0.4,0.9-1,1.5-1.6,1.9c-6.3,3.9-20.6,0-39.2-45.1s22.3-69,43.6-76.4c11.7-4.1,21.9-4.4,28.2-4c4.3,0.3,6.9,0.9,6.9,0.9
			s12.1-4.5,27.2-0.4c11.8,3.2,25.3,11.7,36.2,31.8c0,0,4.6,6.9,3.9,14v0c-3.6-2.2-7.4-3.1-10.3-2.2c-6.5,2.2-8.8,8.4-9.6,12.3
			c-17-0.1-37.5-30.4-37.5-30.4s10.3,23,2.5,36.2C124.2,406.1,109.3,399.2,108.3,398.8z"/>
		<path fill="#A7C3EA" d="M146.8,330.6l-0.3,0.9c-15-4.1-27.2,0.4-27.2,0.4s-2.5-0.6-6.9-0.9c-0.7-2.2-2.7-11,7-19
			c1.9-1.6,4.3-1.8,6.8-1.2c5,1.1,10.5,5.4,14,8c1.6,1.2,2.9,2.8,3.8,4.5C146.1,326.9,146.8,330.6,146.8,330.6z"/>
		<path fill="#2D1A14" d="M519.4,138.7c-16.5,0-52.2-66.1-52.2-66.1s-17.6,27.9-35.8,39.6c-18.1,11.8-28.4,4.4-28.4,4.4
			s-2.9,7-8.1,13c-3.7,4.4-8.7,8.3-14.5,8.5c-13.7,0.5-7.3-23.5-7.3-23.5s-7.8,0.5-12.3-11.8c-4.4-12.3,26.9-51.4,54.3-57.3
			c27.4-5.9,46.5,8.3,46.5,8.3s32.3-17.2,47.5,1c15,17.9,24.3,63.6,20.3,79.8c-3.4,1-5.9,3.3-7.6,5.4L519.4,138.7z"/>
		<path fill="#FFAEBC" d="M577.4,445.3l-2.3,0.3c-26.1,6.5-86.9,4.5-86.9,4.5l-0.1-0.1c19.2-24.6,49.1-67.5,63.3-116.9l0.1-0.7
			c4.9,0.6,9.2,0.7,12.5,0.2c4.1-0.5,8.5-8.8,11.9-20.9C574.8,335.8,572.4,402.5,577.4,445.3z"/>
		<path fill="#FFAEBC" d="M576,311.7c-3.4,12.1-7.8,20.4-11.9,20.9c-3.2,0.4-7.6,0.4-12.5-0.2c-13.2-1.5-30.4-6.6-39.5-14.7
			c-9.6,39.3-57.8,130.5-64.9,131.9c-0.3,0-0.6,0.1-1,0.2v-0.1c-19.5-35.9-24.6-111.3-25-116.8h-0.1c0-0.3,0-0.6,0-0.9l-2,0
			c-8.6,2.2-26.2-1.6-38.2-6.2c-6.3-2.3-11-4.9-12.1-6.9c-3.3-5.9,23.5-77.7,34.6-92.7c10.6-14.3,30.6-11.4,32.5-11.2c0,0,0,0,0,0
			c8.2,7.9,17.8,13,28.8,13.1c1.4,0,2.7,0,4-0.1c2.9,3.3,15.6,16.3,29.8,8.1c16.1-9.3,20.1-17.5,20.1-17.5s16.1-26.8,44.1-11.4
			C587.8,221,585.1,279.7,576,311.7z"/>
		<path fill="#2C625B" d="M621.2,796.3c0.3,3.9,0.4,6.5,0.3,7.4c-1,8.8-58.8,37.2-59.7,32.3s15.7-33.3,15.7-33.3h0.2
			C577.6,802.8,611,805.8,621.2,796.3z"/>
		<path fill="#2C625B" d="M476.9,818.1h0.4c-0.3,5.9-0.5,9.5-0.7,10.1c-1,4.9-69.5,11.8-68.6,5.9c1-5.9,23.5-20.6,23.5-20.6
			S465.1,825.9,476.9,818.1z"/>
		<path fill="#FF6989" d="M577.4,445.3c1.7,14.3,4.3,26,8,32.5c-7.8-3.6-17.8-8.8-33-15.4c-31.8-13.7-73.9,2-73.9,2l-1.1-0.9
			c2.9-3.5,6.5-8,10.7-13.4l0.1,0.1c0,0,60.7,2,86.9-4.5L577.4,445.3z"/>
		<path fill="#EFD1BD" d="M692.4,583.4c-14.2,0.6-28.9,1.3-43.9,1.8l0-1.3c-10.7-27.9,8.3-79.3,8.3-79.3c0,0,0-0.1,0-0.2
			c76.6,11.3,210.2,32.5,223.4,37.8c3.1,1.3,6.5,3.1,10,5.4c16.9,10.9,35.9,31.1,33.1,36.7c-0.8,1.6-3.8,1.9-8,1.3
			c-2.9-1.5-6.2-2.3-9.6-2.3H904c-13.8-3.6-29.8-9.8-29.8-9.8S795.9,578.9,692.4,583.4z"/>
		<path fill="#D2B7A6" d="M890.4,547.1l-0.3,0.5c-3.5-2.2-6.9-4.1-10-5.4c-13.2-5.3-146.7-26.5-223.4-37.8
			c-1.3-5.4,4.9-14.1,4.9-14.1l0.1-0.7c72.2,9.8,192.2,28.7,207.6,37.9C879.1,533.4,890.4,547.1,890.4,547.1z"/>
		<path fill="#4E6C8C" d="M585.5,477.8c8.6,3.9,14.7,6,22.3,5.7c4.2-0.1,25.3,2.3,53.9,6.2l-0.1,0.7c0,0-6.2,8.7-4.9,14.1
			c-28.6-4.2-49.2-7.1-52.9-7.2c-13.2-0.5-35.7-19.2-68.6-22.5c-29.1-2.9-46.3,8.5-53.2,14.5l-5.6-0.1c0.2-0.1,0.3-0.2,0.3-0.4
			c1-2.6-9.4-8.8-9.4-8.8s15.3,2.9,14.7-0.4c-0.7-3.3-12.1-5.5-12.1-5.5l-0.5-0.5c0.6-0.6,1.1-1.2,1.5-1.8c0.7-1.1,3-3.9,6.5-8.2
			l1.1,0.9c0,0,42.1-15.7,73.9-2C567.6,468.9,577.6,474.2,585.5,477.8z"/>
		<path fill="#6A8DB7" d="M482.1,489.2c6.9-6.1,24.1-17.4,53.2-14.5c32.8,3.3,55.4,22.1,68.6,22.5c3.6,0.1,24.3,3,52.9,7.2
			c0,0,0,0.1,0,0.2c0,0-19.1,51.4-8.3,79.3l0,1.3c-73,2.7-154.1,4.8-227.3,4.3v-2.7c0,0,6.1-71.3,27.4-92.1l0.2-0.8
			c10.2,1.8,21.8,3.6,22.6,2.3c1.3-2.3-11.8-9.1-11.8-9.1s14.5,3.8,17,2L482.1,489.2z"/>
		<path fill="#FF6989" d="M602.9,627.4c0,0,15.8,134.8,18.3,168.9c-10.2,9.4-43.6,6.4-43.6,6.4h-0.2L527,626.4h75.9V627.4z"/>
		<path fill="#EFD1BD" d="M415.3,465.7c11.1-7.5,25.5-14.4,30.9-15.9c0.4-0.1,0.7-0.2,1-0.2c7.1-1.3,55.3-92.5,64.9-131.9
			c9.1,8.1,26.3,13.2,39.5,14.7l-0.1,0.7c-14.2,49.4-44.1,92.3-63.3,116.9c-4.2,5.4-7.9,9.9-10.7,13.4c-3.5,4.3-5.9,7.1-6.5,8.2
			c-0.4,0.6-0.9,1.2-1.5,1.8c-5,5-17.1,8-23,9.5c-2.9,0.7-8,4.1-13.3,7.5c-6.6,4.3-13.5,8.5-16.3,7.4c-5.1-2,10.8-19.4,10.5-20.1
			c-0.3-0.7-17.6,17.9-20.8,13.2c-3.2-4.7,11.2-16.7,10.7-16.7c-0.5,0-18.1,16.4-16.4,5.9c0.4-2.6,3-5.7,6.7-8.9
			C409.8,469.5,412.4,467.5,415.3,465.7z"/>
		<path fill="#EFD1BD" d="M530.4,175l0,0.9c0,0-3.3,10.3-11.2,21.8c-9.5,13.8-25.5,29.1-50.4,30.3c-1.3,0.1-2.6,0.1-4,0.1
			c-11-0.2-20.6-5.2-28.8-13.1c0,0,0,0,0,0c-28.2-26.8-40.7-85.2-40.7-85.2l-0.2-0.2c5.1-6,8.1-13,8.1-13s10.3,7.3,28.4-4.4
			c18.1-11.8,35.8-39.6,35.8-39.6s35.7,66.1,52.2,66.1l2.5,1.4c1.7-2.1,4.2-4.4,7.6-5.4c2.3-0.7,4.9-0.8,8,0
			C549.5,138.2,549.7,173.7,530.4,175z"/>
		<path fill="#EFD1BD" d="M519.2,197.7l0.1,0.1c0,1-0.7,20.9-0.7,20.9s-3.9,8.1-20.1,17.5c-14.2,8.2-27-4.9-29.8-8.1
			C493.7,226.9,509.7,211.5,519.2,197.7z"/>
		<path fill="#FF6989" d="M425.7,626.4h59.7c0,0-6,150.6-8.1,191.7h-0.4c-11.8,7.8-45.4-4.6-45.4-4.6L425.7,626.4z"/>
		<path fill="#DABEAC" d="M482.1,479.5c0.6,3.3-14.7,0.4-14.7,0.4s10.4,6.2,9.4,8.8c0,0.2-0.2,0.3-0.3,0.4c-2.5,1.7-17-2-17-2
			s13,6.9,11.8,9.1c-0.7,1.3-12.4-0.5-22.6-2.3c-8.1-1.5-15.3-2.9-15.3-2.9l-0.3-0.5c5.2-3.4,10.4-6.8,13.3-7.5c6-1.5,18-4.5,23-9.5
			l0.5,0.5C470,474,481.4,476.3,482.1,479.5z"/>
		<path fill="#A7C3EA" d="M448.8,493.9l-0.2,0.8c-21.4,20.7-27.4,92.1-27.4,92.1v2.7c-36.1-0.2-70.3-1.1-100.7-2.8
			c9.1-25.5-54.2-85.6-54.2-85.6l0-0.2c15.2,3.9,28.8,2.7,28.8,2.7c-11-9.4-21-30.4-22.2-33c7.4,14.7,23.4,21.4,27.3,21.4
			c3.6,0-10.5-21.6-14.3-58.8l1.6-0.2c0,0,19.1-4.9,41.1,3.9s59.7,32.8,78.8,34.3l0.2,0.2c-3.8,3.2-6.3,6.3-6.7,8.9
			c-1.7,10.5,15.9-5.9,16.4-5.9c0.5,0-13.9,12-10.7,16.7c3.2,4.7,20.5-13.9,20.8-13.2c0.2,0.7-15.7,18.1-10.5,20.1
			c2.9,1.1,9.7-3.1,16.3-7.4l0.3,0.5C433.4,491,440.6,492.5,448.8,493.9z"/>
		<path fill="#DABEAC" d="M421.1,332.9h0.1c0.4,5.5,5.5,80.9,25,116.8v0.1c-5.4,1.5-19.8,8.4-30.9,15.9
			c-27-39.1-35.4-136.3-34.7-138.9l0.4-0.9c12,4.5,29.6,8.3,38.2,6.2l2,0C421.1,332.3,421.1,332.6,421.1,332.9z"/>
		<path fill="#EFD1BD" d="M126.9,583.4c3.4-2.9,8.5-6.1,15.9-9.2c11.1-4.6,88.8-7.2,88.8-7.2l0.2-0.2c-15.3-13.8-50-48.3-45.9-74.9
			c1.3-8,4.4-13.2,8.5-16.5c13.2-10.8,36.3-1.4,36.3-1.4c7.7,15.9,22.3,23.4,35.6,26.9l0,0.2c0,0,63.4,60.1,54.2,85.6
			c-9.2,25.5-145,5.9-154.8,2c-9.8-3.9-41.8,7.2-43.8,4.5C120.8,591.6,121.8,587.8,126.9,583.4z"/>
		<path fill="#EFD1BD" d="M166.7,387.5c0.7-3.9,3-10.1,9.6-12.3c2.9-1,6.7,0,10.3,2.2c6.8,4.2,12.5,12.7,8.6,20.8l0.9,0.4
			c0,0,11.2,24.8,23.2,33.5c2.4,15.2,5.6,29.8,11.4,41.9c0,0-23.1-9.4-36.3,1.4l-0.6-0.8l-4.9-2l-1-0.7
			c-4.7,6.9-10.3,13.2-16.3,18.3c-19.3,16.3-88.2-35.6-88.2-35.6l-2-0.1c4.2-8.1,1.8-34.8,1.8-34.8s14.7,11.8,22.5,4.9
			c7.6-6.7,2.7-24.9,2.5-25.9c1,0.5,15.9,7.4,23.5-5.4c7.8-13.2-2.5-36.2-2.5-36.2S149.8,387.4,166.7,387.5z"/>
	</g>
	<g>
		<g>
			<path fill="#C99781" d="M166.2,390.7c0,0,0-1,0.2-2.7c0.1-0.9,0.3-1.9,0.7-3.1c0.3-1.2,0.8-2.5,1.6-3.8c0.8-1.3,1.8-2.7,3.1-3.8
				c1.3-1.2,3-2.1,4.8-2.6c2-0.5,4-0.3,5.9,0.3c1.9,0.6,3.8,1.5,5.4,2.7c3.3,2.3,6.1,5.5,7.6,9c0.8,1.7,1.2,3.6,1.3,5.3
				c0.1,1.8-0.2,3.4-0.7,4.9c-0.3,0.7-0.5,1.4-0.9,2c-0.3,0.6-0.7,1.1-1.1,1.6c-0.7,1-1.5,1.8-2.1,2.4c-0.6,0.6-1.2,1-1.5,1.3
				c-0.4,0.3-0.6,0.4-0.6,0.4c-0.1,0-0.1,0-0.2,0c0-0.1,0-0.1,0-0.2c0,0,0.2-0.2,0.5-0.5c0.3-0.3,0.9-0.8,1.5-1.4
				c0.6-0.6,1.3-1.4,2-2.4c0.3-0.5,0.7-1,1-1.6c0.3-0.6,0.5-1.2,0.8-1.9c0.4-1.4,0.7-2.9,0.6-4.6c-0.1-1.7-0.6-3.4-1.3-5
				c-1.5-3.3-4.2-6.3-7.3-8.5c-1.6-1.1-3.3-2-5.1-2.6c-1.8-0.6-3.7-0.8-5.4-0.4c-1.7,0.5-3.3,1.3-4.5,2.4c-1.3,1.1-2.3,2.3-3,3.5
				c-1.5,2.5-2.1,4.9-2.5,6.6c-0.3,1.7-0.3,2.7-0.3,2.7c0,0.1-0.1,0.2-0.2,0.2C166.3,390.9,166.2,390.8,166.2,390.7L166.2,390.7z"/>
		</g>
		<g>
			<path fill="#C99781" d="M436.1,214.9c0,0,0.4,0.3,1,0.9c0.3,0.3,0.7,0.7,1.2,1.1c0.5,0.4,1.1,0.9,1.7,1.4c1.3,1,2.9,2.2,4.9,3.4
				c2,1.2,4.3,2.4,6.9,3.5c2.6,1,5.6,1.8,8.8,2.3c1.6,0.2,3.3,0.3,5,0.2c0.9,0,1.7-0.1,2.6-0.1c0.8,0,1.8-0.1,2.6-0.2
				c0.9-0.1,1.8-0.1,2.7-0.3c0.9-0.1,1.8-0.3,2.7-0.4l1.4-0.2l1.3-0.3c0.9-0.2,1.8-0.4,2.7-0.6c3.6-1.1,7.1-2.3,10.5-4.1
				c3.4-1.7,6.6-3.7,9.6-5.9c3-2.3,5.8-4.7,8.2-7.2c2.5-2.6,4.7-5.2,6.7-7.8c2-2.6,3.7-5.2,5.2-7.6c3-4.9,5.1-9.2,6.4-12.2
				c1.3-3.1,1.9-4.9,1.9-4.9c0-0.1,0.1-0.1,0.2-0.1c0.1,0,0.1,0.1,0.1,0.2c0,0-0.6,1.8-1.8,4.9c-1.3,3.1-3.3,7.5-6.2,12.4
				c-1.5,2.5-3.2,5.1-5.1,7.7c-2,2.7-4.2,5.3-6.7,7.9c-2.5,2.6-5.3,5.1-8.3,7.4c-3,2.3-6.3,4.3-9.7,6.1c-3.4,1.8-7.1,3-10.7,4.1
				c-0.9,0.2-1.8,0.4-2.8,0.6l-1.4,0.3l-1.4,0.2c-0.9,0.1-1.8,0.3-2.7,0.4c-0.9,0.1-1.8,0.2-2.7,0.2c-0.9,0.1-1.8,0.2-2.7,0.2
				c-0.9,0-1.7,0-2.6,0.1c-1.8,0.1-3.5-0.1-5.1-0.3c-3.3-0.5-6.3-1.3-9-2.4c-2.7-1.1-5-2.4-7-3.6c-2-1.3-3.6-2.5-4.9-3.6
				c-0.7-0.5-1.2-1-1.7-1.5c-0.5-0.4-0.9-0.8-1.2-1.1c-0.6-0.6-1-0.9-1-0.9c-0.1-0.1-0.1-0.2,0-0.2
				C435.9,214.8,436,214.8,436.1,214.9z"/>
		</g>
		<g>
			<path fill="#C99781" d="M519.2,144.2c0,0,0.5-1.1,1.6-2.9c0.6-0.9,1.4-1.9,2.4-3c1-1.1,2.3-2.2,3.9-3c1.6-0.9,3.6-1.5,5.7-1.6
				c1.1-0.1,2.1,0,3.2,0.2c0.5,0.1,1.1,0.2,1.6,0.4c0.6,0.2,1,0.3,1.6,0.7c2.1,1.2,3.6,3.2,4.6,5.4c1,2.2,1.7,4.5,2,6.9
				c0.7,4.8,0.4,9.7-0.8,14.1c-0.6,2.2-1.5,4.2-2.5,6c-1.1,1.8-2.4,3.3-3.8,4.5c-1.4,1.2-2.9,2-4.3,2.4c-1.4,0.5-2.7,0.7-3.7,0.8
				c-1.1,0.1-1.9,0-2.4,0c-0.6,0-0.9-0.1-0.9-0.1c-0.1,0-0.1-0.1-0.1-0.1c0-0.1,0.1-0.1,0.1-0.1c0,0,0.3,0,0.8,0.1
				c0.5,0,1.4,0,2.4-0.1c1-0.1,2.3-0.3,3.6-0.9c1.3-0.5,2.7-1.3,4.1-2.5c1.3-1.1,2.5-2.6,3.5-4.4c1-1.7,1.8-3.7,2.3-5.9
				c1.1-4.3,1.4-9.1,0.7-13.7c-0.4-2.3-0.9-4.6-1.9-6.7c-1-2-2.3-4-4.1-5c-0.4-0.3-1-0.5-1.4-0.6c-0.5-0.1-1-0.3-1.5-0.4
				c-1-0.2-2-0.3-3-0.3c-2,0.1-3.8,0.6-5.4,1.4c-1.6,0.8-2.8,1.8-3.9,2.8c-1,1-1.8,2-2.4,2.8c-1.2,1.7-1.7,2.8-1.7,2.8
				c0,0.1-0.1,0.1-0.2,0.1C519.2,144.3,519.1,144.2,519.2,144.2L519.2,144.2z"/>
		</g>
		<g>
			<path fill="#4E6C8C" d="M518.5,218.6c0,0,0.6-1.1,2.1-3c1.5-1.8,3.8-4.5,7.3-7.1c1.8-1.3,3.9-2.6,6.3-3.7c2.4-1.1,5.2-2,8.3-2.3
				c3.1-0.4,6.4-0.2,9.8,0.5c3.4,0.7,6.8,2,10.2,3.8c0.9,0.5,1.6,1,2.5,1.5c0.8,0.6,1.6,1.2,2.3,1.8c0.7,0.7,1.4,1.4,2.1,2.1
				c0.6,0.8,1.3,1.5,1.9,2.4c2.5,3.3,4.4,7.1,5.9,11.2c3,8.2,4.6,17.3,5.2,26.7c0.6,9.4,0.4,19.2-0.6,29.1c-1,9.9-2.6,19.8-5.3,29.6
				c-1.4,4.8-3,9.7-5.2,14.2c-0.6,1.1-1.2,2.2-1.9,3.3c-0.7,1.1-1.5,2.1-2.5,3c-0.2,0.2-0.5,0.4-0.8,0.6c-0.3,0.2-0.5,0.4-0.9,0.5
				l-0.5,0.2c-0.2,0.1-0.3,0.1-0.5,0.1c-0.4,0.1-0.7,0.1-1,0.2c-1.3,0.1-2.5,0.2-3.8,0.2c-5,0-9.9-0.6-14.7-1.5
				c-4.8-0.9-9.5-2.1-13.9-3.6c-4.5-1.5-8.8-3.3-12.8-5.6c-1-0.6-1.9-1.2-2.9-1.8c-0.9-0.7-1.9-1.3-2.7-2c-1.7-1.4-3.3-3-4.6-4.8
				c-1.3-1.8-2.2-3.8-2.6-5.9c-0.2-1.1,0-2.2,0.2-3.2c0.2-1,0.5-2,0.7-3c1.1-3.9,2.5-7.6,3.8-11.2c2.6-7.1,5.3-13.5,7.6-19.1
				c2.3-5.7,4.4-10.6,6-14.7c1.6-4.1,2.9-7.3,3.7-9.5c0.8-2.2,1.1-3.4,1.1-3.4c0-0.1,0.1-0.1,0.2-0.1c0.1,0,0.1,0.1,0.1,0.2
				c0,0-0.3,1.2-1.1,3.5c-0.8,2.2-2,5.5-3.6,9.6c-1.6,4.1-3.6,9-5.9,14.7c-2.3,5.7-4.9,12.1-7.5,19.2c-1.3,3.5-2.6,7.2-3.7,11.1
				c-0.5,1.9-1.1,4-0.9,5.9c0.4,2,1.3,3.9,2.5,5.7c1.2,1.7,2.7,3.3,4.5,4.7c0.8,0.7,1.7,1.3,2.6,2c0.9,0.6,1.9,1.2,2.9,1.8
				c3.9,2.2,8.2,4,12.6,5.5c4.5,1.5,9.1,2.7,13.8,3.5c4.7,0.9,9.6,1.5,14.5,1.5c1.2,0,2.5-0.1,3.7-0.2c0.3,0,0.6-0.1,0.9-0.1
				l0.4-0.1l0.4-0.2c0.3-0.1,0.5-0.3,0.7-0.4c0.2-0.2,0.5-0.3,0.7-0.6c0.9-0.8,1.6-1.8,2.3-2.8c0.7-1,1.3-2.1,1.8-3.2
				c2.2-4.4,3.8-9.2,5.1-14c2.6-9.7,4.4-19.6,5.4-29.4c1-9.8,1.3-19.6,0.7-28.9c-0.6-9.4-2.1-18.4-5.1-26.5c-1.5-4-3.4-7.8-5.8-11
				c-0.6-0.8-1.3-1.5-1.9-2.3c-0.7-0.7-1.4-1.4-2.1-2.1c-0.8-0.6-1.5-1.2-2.3-1.8c-0.8-0.5-1.6-1.1-2.4-1.5
				c-6.6-3.6-13.5-5.1-19.6-4.4c-3,0.3-5.8,1.2-8.2,2.2c-2.4,1.1-4.5,2.3-6.2,3.6c-3.5,2.6-5.8,5.2-7.3,7c-1.5,1.8-2.1,2.9-2.1,2.9
				c0,0.1-0.1,0.1-0.2,0.1C518.5,218.8,518.5,218.7,518.5,218.6L518.5,218.6z"/>
		</g>
		<g>
			<path fill="#4E6C8C" d="M427.1,254.9c0,0-0.2,1.7-0.5,4.5c-0.3,2.9-0.7,7-1.2,12c-0.5,5-1,10.8-1.5,17c-0.5,6.2-1,12.9-1.4,19.5
				c-0.2,3.3-0.4,6.6-0.5,9.9c-0.1,3.3-0.3,6.5-0.3,9.6c0,1.6-0.1,3.1-0.1,4.6c0,1.5,0,3,0,4.4c0,2.9,0.1,5.6,0.2,8
				c0.2,5,0.6,9.1,1.1,12c0.2,1.4,0.5,2.5,0.7,3.3c0.2,0.8,0.3,1.2,0.3,1.2c0,0.1,0,0.1-0.1,0.2c-0.1,0-0.1,0-0.2-0.1
				c0,0-0.1-0.4-0.3-1.2c-0.2-0.8-0.5-1.9-0.8-3.3c-0.6-2.9-1.1-7-1.4-12c-0.2-2.5-0.3-5.2-0.3-8.1c-0.1-2.9-0.1-5.9,0-9
				c0-3.1,0.1-6.4,0.3-9.6c0.1-3.3,0.3-6.6,0.5-9.9c0.2-3.3,0.4-6.7,0.7-9.9c0.3-3.3,0.5-6.5,0.8-9.6c0.5-6.2,1.2-12,1.7-17
				c1.1-9.9,2.1-16.5,2.1-16.5c0-0.1,0.1-0.2,0.2-0.1C427,254.8,427.1,254.8,427.1,254.9z"/>
		</g>
		<g>
			<path fill="#C99781" d="M238.7,573.1c0,0-1.9-1.6-5.1-4.4c-1.6-1.4-3.6-3.1-5.8-5.1c-2.2-2-4.6-4.4-7.2-7
				c-5.2-5.2-11-11.5-16.7-18.8c-2.8-3.6-5.6-7.5-8.2-11.6c-2.6-4.1-4.9-8.4-6.8-13c-1.8-4.6-3.2-9.4-3.5-14.3
				c-0.2-2.4,0-4.9,0.3-7.3c0.4-2.3,1-4.7,1.8-6.8c0.8-2.2,1.9-4.2,3.3-6c1.4-1.8,3-3.3,4.7-4.5c3.6-2.5,7.6-3.6,11.2-4
				c3.7-0.5,7.1-0.3,10.1,0.1c3,0.4,5.5,0.9,7.6,1.5c4.2,1.1,6.4,2.1,6.4,2.1c0.1,0,0.1,0.1,0.1,0.2c0,0.1-0.1,0.1-0.2,0.1
				c0,0-0.6-0.2-1.7-0.6c-1.1-0.4-2.7-0.9-4.8-1.4c-2.1-0.5-4.6-1-7.6-1.3c-3-0.3-6.3-0.4-9.9,0c-3.6,0.5-7.5,1.6-10.9,4
				c-3.4,2.4-6.1,6-7.7,10.3c-0.8,2.1-1.3,4.4-1.7,6.7c-0.3,2.3-0.5,4.7-0.2,7c0.3,4.8,1.8,9.5,3.6,14c3.7,9,9.2,17.2,14.8,24.5
				c5.6,7.3,11.4,13.6,16.6,18.8c2.6,2.6,5,5,7.1,7c2.2,2.1,4.1,3.8,5.7,5.2c3.2,2.8,5.1,4.5,5.1,4.5c0.1,0.1,0.1,0.2,0,0.2
				C238.9,573.1,238.8,573.1,238.7,573.1z"/>
		</g>
		<g>
			<path fill="#C99781" d="M186.4,377.4c0,0-0.1,0-0.2,0c-0.1,0-0.1,0-0.1,0c0,0,0.1,0,0.2,0C186.4,377.3,186.5,377.3,186.4,377.4
				c0.1,0,0.2,0,0.3,0c0,0,0.1,0,0.2,0c0.1,0,0.2,0,0.2,0c0,0,0,0-0.1,0c-0.1,0-0.2,0-0.2,0C186.7,377.4,186.6,377.4,186.4,377.4z"
				/>
		</g>
		<g>
			<path fill="#633E00" d="M148.8,305.1c0,0,0.7-0.6,2-1.6c1.4-1,3.5-2.3,6.3-3.5c2.9-1.3,6.5-2.4,10.8-3c2.2-0.2,4.5-0.4,6.9-0.2
				c2.4,0.2,5,0.5,7.6,1.2c5.2,1.3,10.6,3.7,15.8,7c5.2,3.3,10.2,7.5,14.9,12.2c1.1,1.2,2.3,2.4,3.5,3.7c1.1,1.2,2.2,2.7,3.1,4.1
				c1.9,2.9,3.6,6,5.1,9.1c3,6.4,5.4,13.1,7.6,19.8c4.3,13.6,7.7,27.4,11,40.3c3.2,12.9,6.2,25,9.3,35.2c1.5,5.1,3,9.7,4.6,13.8
				c1.5,4,3.1,7.5,4.7,10.1c1.6,2.7,3.2,4.5,4.4,5.6c0.3,0.3,0.6,0.5,0.9,0.7c0.3,0.2,0.5,0.3,0.7,0.4c0.4,0.2,0.6,0.3,0.6,0.3l0,0
				c0.1,0,0.1,0.1,0.1,0.2c0,0.1-0.1,0.1-0.2,0.1c0,0-0.2-0.1-0.6-0.3c-0.2-0.1-0.4-0.2-0.7-0.4c-0.3-0.2-0.6-0.4-0.9-0.7
				c-1.3-1.1-3-2.9-4.6-5.6c-3.2-5.4-6.5-13.7-9.6-23.9c-3.1-10.2-6.2-22.3-9.4-35.2c-3.3-12.9-6.8-26.7-11.1-40.2
				c-2.2-6.7-4.6-13.4-7.5-19.8c-1.5-3.2-3.1-6.2-5-9c-1-1.4-1.9-2.8-3.1-4c-1.1-1.2-2.3-2.4-3.4-3.7c-4.6-4.7-9.5-8.9-14.7-12.2
				c-5.1-3.3-10.4-5.7-15.5-7c-5.1-1.3-10-1.5-14.3-1.1c-4.3,0.5-7.9,1.6-10.7,2.8c-2.8,1.2-4.9,2.5-6.3,3.4c-1.4,0.9-2,1.5-2,1.5
				c-0.1,0.1-0.2,0.1-0.2,0C148.7,305.2,148.7,305.1,148.8,305.1z"/>
		</g>
		<g>
			<path fill="#C99781" d="M174,393.3c0,0,0-1,0.2-2.4c0.1-0.7,0.3-1.5,0.6-2.4c0.2-0.4,0.3-0.9,0.5-1.3c0.2-0.4,0.4-0.9,0.7-1.3
				c0.2-0.4,0.5-0.8,0.8-1.2c0.3-0.4,0.7-0.7,1-1c0.4-0.3,0.7-0.5,1.1-0.7c0.4-0.2,0.8-0.4,1.1-0.5c0.4-0.1,0.7-0.1,1-0.2
				c0.3,0,0.6,0,0.8,0c0.4,0,0.7,0,0.7,0c0.1,0,0.1,0.1,0.1,0.1c0,0.1,0,0.1-0.1,0.1l0,0c0,0-0.2,0-0.6,0.1c-0.2,0-0.4,0-0.7,0.1
				c-0.3,0.1-0.5,0.2-0.9,0.3c-0.3,0.1-0.6,0.3-0.9,0.5c-0.3,0.2-0.6,0.5-0.9,0.7c-0.3,0.3-0.6,0.6-0.8,1c-0.2,0.4-0.5,0.7-0.7,1.1
				c-0.2,0.4-0.4,0.8-0.6,1.2c-0.2,0.4-0.3,0.8-0.5,1.2c-0.3,0.8-0.5,1.6-0.7,2.2c-0.4,1.3-0.6,2.2-0.6,2.2c0,0.1-0.1,0.1-0.2,0.1
				C174.1,393.5,174,393.4,174,393.3z"/>
		</g>
		<g>
			<path fill="#C99781" d="M128.1,482.6c0,0,1.7,0.8,4.6,2.2c3,1.4,7.2,3.2,12.5,5c2.6,0.9,5.5,1.8,8.6,2.4c3.1,0.6,6.5,1,9.9,0.7
				c1.7-0.2,3.4-0.6,5-1.3c1.6-0.7,2.9-1.9,4.3-3.1c2.7-2.4,5.3-5.1,7.7-7.9c2.4-2.8,4.7-5.7,6.8-8.7c2-3,3.9-6.1,5.6-9.1
				c1.7-3.1,3.1-6.1,4.3-9c1.2-2.9,2.2-5.8,3-8.4c0.7-2.7,1.3-5.2,1.6-7.4c0.2-1.1,0.3-2.2,0.4-3.1c0.1-1,0.1-1.9,0.1-2.7
				c0-1.6,0-2.9-0.2-3.8c-0.1-0.9-0.1-1.3-0.1-1.3l0,0c0-0.1,0-0.1,0.1-0.1c0.1,0,0.1,0,0.1,0.1c0,0,0.1,0.5,0.2,1.3
				c0.1,0.9,0.2,2.2,0.3,3.8c0,0.8,0,1.7-0.1,2.7c-0.1,1-0.1,2.1-0.3,3.2c-0.3,2.3-0.8,4.8-1.5,7.5c-0.8,2.7-1.7,5.6-2.9,8.6
				c-1.2,3-2.6,6.1-4.3,9.1c-1.7,3.1-3.5,6.2-5.6,9.2c-2.1,3-4.4,6-6.8,8.8c-2.4,2.8-5.1,5.5-7.8,8c-0.7,0.6-1.3,1.2-2.1,1.8
				c-0.7,0.6-1.6,1-2.4,1.4c-1.7,0.8-3.5,1.2-5.3,1.4c-3.6,0.3-7-0.1-10.1-0.8c-3.2-0.7-6.1-1.6-8.7-2.5c-5.3-1.9-9.5-3.9-12.4-5.3
				c-2.9-1.4-4.6-2.3-4.6-2.3c-0.1,0-0.1-0.1-0.1-0.2C127.9,482.6,128,482.6,128.1,482.6z"/>
		</g>
		<g>
			<path fill="#3D5874" d="M478.3,492.6c0,0,1.9-2.4,6-5.6c2.1-1.6,4.7-3.4,7.9-5.1c3.2-1.7,6.9-3.4,11.2-4.7
				c4.3-1.3,9-2.3,14.1-2.9c5.1-0.6,10.5-0.7,16.1-0.2c0.7,0.1,1.4,0.1,2.1,0.2c0.7,0.1,1.4,0.2,2.1,0.3c1.4,0.2,2.8,0.3,4.2,0.6
				c1.4,0.3,2.8,0.5,4.3,0.8c1.4,0.2,2.8,0.7,4.3,1c5.7,1.4,11.4,3.2,16.9,5.5c5.5,2.2,10.9,4.7,16.2,7.2c2.6,1.2,5.3,2.5,7.9,3.6
				c1.3,0.6,2.6,1.1,3.9,1.6c0.7,0.3,1.3,0.5,2,0.7c0.7,0.2,1.3,0.5,2,0.6c0.7,0.2,1.3,0.3,2,0.5c0.7,0.1,1.3,0.2,2,0.2
				c1.3,0.1,2.7,0.2,4,0.4c2.7,0.3,5.3,0.6,7.8,1c5,0.7,9.8,1.4,14.2,2c8.8,1.3,16.1,2.4,21.2,3.2c5.1,0.8,8.1,1.2,8.1,1.2l-0.1,0.5
				c0,0-11.7-1.7-29.3-4.1c-4.4-0.6-9.2-1.2-14.2-1.9c-2.5-0.3-5.1-0.7-7.8-0.9c-1.3-0.2-2.6-0.2-4-0.4c-0.7-0.1-1.4-0.1-2.1-0.3
				c-0.7-0.2-1.4-0.3-2-0.5c-0.7-0.1-1.4-0.4-2-0.6c-0.7-0.2-1.4-0.4-2-0.7c-1.3-0.5-2.7-1-4-1.6c-2.6-1.1-5.3-2.3-7.9-3.6
				c-5.3-2.5-10.7-4.9-16.2-7.1c-5.5-2.2-11.1-4-16.7-5.5c-1.4-0.3-2.8-0.8-4.2-1c-1.4-0.3-2.8-0.5-4.2-0.8
				c-1.4-0.2-2.8-0.4-4.2-0.6c-0.7-0.1-1.4-0.2-2.1-0.3c-0.7-0.1-1.4-0.1-2.1-0.2c-5.5-0.5-10.9-0.4-15.9,0.1c-5,0.5-9.7,1.5-14,2.8
				c-4.2,1.3-7.9,2.9-11.1,4.6c-3.2,1.7-5.8,3.4-7.8,5c-2,1.6-3.6,2.9-4.5,3.9c-1,1-1.4,1.5-1.4,1.5L478.3,492.6z"/>
		</g>
	</g>
	<g>
		<path fill="#C99781" d="M522.1,155.9c0,0,0.2-1.2,0.8-2.8c0.6-1.6,1.6-3.8,3.2-5.6c0.8-0.9,1.8-1.6,2.8-2.1c0.5-0.3,1-0.5,1.5-0.6
			c0.2-0.1,0.5-0.1,0.7-0.1c0.2,0,0.5-0.1,0.7-0.1c0.4,0,0.9,0,1.2,0c0.4,0.1,0.7,0.1,0.9,0.2c0.5,0.1,0.8,0.2,0.8,0.2
			c0.1,0,0.1,0.1,0.1,0.2c0,0.1-0.1,0.1-0.1,0.1l0,0c0,0-0.3,0-0.8-0.1c-0.5,0-1.2-0.1-2,0.1c-0.2,0-0.4,0.1-0.6,0.1
			c-0.2,0-0.4,0.1-0.7,0.2c-0.4,0.1-0.9,0.4-1.3,0.6c-0.9,0.5-1.7,1.2-2.5,2c-0.7,0.8-1.4,1.7-1.9,2.6c-0.5,0.9-1,1.8-1.4,2.5
			c-0.7,1.5-1.1,2.6-1.1,2.6c0,0.1-0.1,0.1-0.2,0.1C522.1,156.1,522.1,156,522.1,155.9z"/>
	</g>
	<g>
		<path fill="#C99781" d="M435.9,133.4c0,0,0,0.2,0.1,0.7c0.1,0.4,0.2,1.1,0.3,1.9c0.3,1.6,0.7,3.9,1.3,6.7c0.5,2.8,1.2,6,2,9.4
			c0.8,3.4,1.6,7.1,2.7,10.7c0.5,1.8,1.1,3.6,1.7,5.3c0.6,1.7,1.3,3.4,2.1,4.9c0.4,0.8,0.9,1.5,1.4,2.1c0.5,0.6,1.1,1.1,1.8,1.1
			c0.8,0.1,1.5,0.2,2.3,0.1c0.4,0,0.7-0.1,1.1-0.1c0.4-0.1,0.7-0.1,1-0.2c2.7-0.6,4.8-1.8,6.1-2.7c1.4-0.9,2.1-1.5,2.1-1.5
			c0.1,0,0.1,0,0.2,0c0,0,0,0.1,0,0.2c0,0-0.7,0.7-2,1.7c-0.7,0.5-1.5,1-2.5,1.6c-1,0.5-2.2,1.1-3.6,1.4c-0.4,0.1-0.7,0.1-1.1,0.2
			c-0.4,0-0.8,0.1-1.1,0.1c-0.8,0-1.6,0-2.4-0.1l-0.3,0c-0.2,0-0.2-0.1-0.4-0.1c-0.2-0.1-0.5-0.2-0.6-0.3c-0.4-0.2-0.7-0.6-1-0.9
			c-0.6-0.7-1.1-1.4-1.5-2.2c-0.9-1.6-1.6-3.3-2.2-5c-0.6-1.8-1.2-3.6-1.7-5.4c-1-3.6-1.9-7.3-2.6-10.8c-0.7-3.5-1.3-6.7-1.8-9.5
			c-0.5-2.8-0.8-5.1-1-6.8c-0.1-0.8-0.2-1.5-0.2-1.9c0-0.4-0.1-0.7-0.1-0.7c0-0.1,0.1-0.2,0.2-0.2
			C435.8,133.3,435.9,133.4,435.9,133.4L435.9,133.4z"/>
	</g>
	<g>
		<path fill="#1E120D" d="M449.8,185.8c0,0,0.7,0.2,1.9,0.3c1.2,0.2,2.9,0.4,5,0.4c2.1,0.1,4.5,0,7-0.3c1.3-0.2,2.6-0.4,3.9-0.8
			c1.3-0.4,2.6-0.8,3.8-1.3c1.3-0.5,2.5-1.2,3.6-1.9c0.6-0.4,1.1-0.7,1.6-1.1c0.5-0.4,1-0.8,1.5-1.2c0.9-0.9,1.8-1.8,2.5-2.7
			c0.4-0.5,0.7-0.9,1-1.4c0.3-0.5,0.6-0.9,0.9-1.3c0.5-0.9,1-1.7,1.3-2.5c0.3-0.8,0.7-1.4,0.9-2c0.4-1.1,0.7-1.8,0.7-1.8l0,0
			c0.1-0.1,0.2-0.2,0.3-0.2c0.1,0.1,0.2,0.2,0.2,0.3c0,0-0.2,0.7-0.6,1.8c-0.2,0.6-0.5,1.3-0.8,2.1c-0.3,0.8-0.8,1.6-1.3,2.6
			c-0.3,0.4-0.6,0.9-0.9,1.4c-0.3,0.5-0.7,0.9-1,1.4c-0.7,1-1.6,1.9-2.6,2.8c-0.5,0.5-1,0.9-1.5,1.3c-0.5,0.4-1.1,0.8-1.7,1.2
			c-1.2,0.7-2.4,1.4-3.7,2c-1.3,0.6-2.6,1-4,1.3c-1.3,0.3-2.7,0.6-4,0.8c-2.6,0.4-5.1,0.3-7.2,0.2c-4.2-0.3-6.9-1.1-6.9-1.1l0,0
			c-0.1,0-0.2-0.2-0.2-0.3C449.6,185.8,449.7,185.7,449.8,185.8z"/>
	</g>
	<path fill="#1E120D" d="M478.9,144.8c1.4,3.5,0.9,7-1.1,7.8c-2,0.8-4.8-1.4-6.2-4.9s-0.9-7,1.1-7.8
		C474.7,139,477.5,141.2,478.9,144.8z"/>
	<path fill="#1E120D" d="M430.6,163.4c1.4,3.5,0.9,7-1.1,7.8c-2,0.8-4.8-1.4-6.2-4.9c-1.4-3.5-0.9-7,1.1-7.8
		C426.4,157.6,429.2,159.8,430.6,163.4z"/>
	<path fill="#2D1A14" d="M420,143.3c-2.7,1.5-7.2,5.7-4.6,9c0.9,1.2,2.4,1.9,3.9,1c2-1.2,2.2-3.7,3.8-5.3c1.4-1.4,3.7-1.9,4.9-3.4
		c0.2-0.2,0.2-0.4,0.1-0.7C426.8,141.3,422,142.2,420,143.3z"/>
	<path fill="#2D1A14" d="M474.6,118c-3.9-0.9-8.7-0.5-11.8,2.2c-3,2.6,0.8,6.4,3.9,5c3.3-1.4,6.4-1.4,9.9-1.2c0.9,0,5.6,0.3,5.5-1.7
		C482,119.4,476.8,118.5,474.6,118z"/>
	<line fill="none" stroke="#5B5B5F" stroke-width="4" stroke-miterlimit="10" x1="193.8" y1="626.5" x2="193.8" y2="917.7"/>
	<line fill="none" stroke="#5B5B5F" stroke-width="4" stroke-miterlimit="10" x1="840.3" y1="626.5" x2="840.3" y2="917.7"/>
	<g>
		<path fill="#845B36" d="M115.3,414c-0.4-3.4,13.4-9.8,22.1-4.1c1.4,0.9-5.9,0.7-11.1,2.4C121.9,413.8,116.1,420.4,115.3,414z"/>
		<path fill="#845B36" d="M90.5,434.4c-2.7-0.5-8.4,10.4-4.2,17.7c0.7,1.2,0.8-4.7,2.4-8.8C90.2,439.7,95.7,435.3,90.5,434.4z"/>
		
			<linearGradient id="SVGID_1_" gradientUnits="userSpaceOnUse" x1="490.3257" y1="305.9702" x2="478.0838" y2="306.1369" gradientTransform="matrix(-0.6891 0.7247 0.7247 0.6891 240.3763 -103.0251)">
			<stop  offset="0" style="stop-color:#E8AA9A"/>
			<stop  offset="1" style="stop-color:#E1A697;stop-opacity:0"/>
		</linearGradient>
		<path fill="url(#SVGID_1_)" d="M120.4,464.9c-1.5-2.4,0.1-10.2,5.4-10.4c5.3-0.2,8.1,8.8,4.8,11.2
			C127.4,468.1,121.8,467.2,120.4,464.9z"/>
		<g>
			<path fill="#D3A289" d="M100.1,429.1c0,0,0.6,0.7,1.6,1.9c1,1.2,2.5,2.9,4.2,5c1.7,2.1,3.7,4.5,5.8,7.2c2.1,2.7,4.3,5.5,6.5,8.4
				c1.1,1.5,2.1,2.9,3,4.6c0.1,0.2,0.2,0.4,0.3,0.7c0,0.2,0.1,0.2,0,0.6c-0.1,0.2-0.1,0.2-0.2,0.3c-0.2,0.4-0.3,0.8-0.4,1.2
				c-0.3,0.8-0.5,1.6-0.6,2.4c-0.1,0.8-0.2,1.6-0.2,2.4c0,0.8,0.2,1.5,0.5,2c0,0.1,0.1,0.1,0.1,0.2l0.2,0.2l0.4,0.4
				c0.3,0.2,0.6,0.4,0.9,0.5l0.5,0.2l0.5,0.1c0.3,0.1,0.7,0.1,1,0.2c2.6,0.3,4.8-0.6,6-1.6c0.3-0.2,0.5-0.5,0.7-0.7
				c0.2-0.2,0.3-0.5,0.4-0.6c0.1-0.4,0.2-0.6,0.2-0.6l0,0c0-0.1,0.1-0.1,0.2-0.1c0.1,0,0.1,0.1,0.1,0.2c0,0-0.1,0.2-0.2,0.6
				c-0.1,0.2-0.2,0.4-0.4,0.7c-0.2,0.2-0.4,0.6-0.7,0.8c-0.6,0.5-1.5,1.1-2.5,1.5c-1.1,0.4-2.4,0.6-3.8,0.5c-0.3,0-0.7-0.1-1.1-0.2
				c-0.2,0-0.4-0.1-0.5-0.1l-0.5-0.2c-0.4-0.1-0.7-0.4-1.1-0.6l-0.5-0.3l-0.2-0.2c-0.1-0.1-0.2-0.2-0.2-0.3
				c-0.6-0.7-0.7-1.6-0.8-2.5c0-0.9,0-1.7,0.2-2.6c0.1-0.9,0.4-1.7,0.6-2.6c0.1-0.4,0.3-0.9,0.5-1.3c0-0.1,0.1-0.2,0.1-0.3
				c0,0.2,0,0-0.1,0c-0.1-0.2-0.1-0.3-0.2-0.5c-0.8-1.5-1.9-3-3-4.4c-2.1-2.9-4.3-5.8-6.4-8.5c-2.1-2.7-4-5.2-5.7-7.3
				c-3.3-4.3-5.5-7.1-5.5-7.1c-0.1-0.1,0-0.2,0-0.2C100,429,100.1,429,100.1,429.1z"/>
		</g>
		<path fill="#E5A0A0" d="M152.4,448.8c-5.1-4.9-5.3-13-0.5-18.2c4.9-5.1,13-5.3,18.2-0.5c5.1,4.9,5.3,13,0.5,18.2
			C165.6,453.5,157.5,453.7,152.4,448.8z"/>
		<g>
			<path fill="#1E120D" d="M153.8,444.6c0,0,0.4,0.6,0.9,1.9c0.2,0.6,0.5,1.4,0.7,2.2c0.1,0.4,0.2,0.9,0.3,1.4
				c0.1,0.5,0.2,1,0.3,1.6c0.1,0.6,0.1,1.1,0.2,1.7c0,0.3,0,0.6,0.1,0.9c0,0.3,0,0.6,0,1c0,0.6,0,1.3-0.1,2c-0.1,0.7-0.2,1.4-0.3,2
				c-0.3,1.4-0.7,2.8-1.3,4.1c-0.3,0.7-0.6,1.3-0.9,2c-0.4,0.6-0.8,1.3-1.1,1.9c-0.4,0.7-0.9,1.2-1.3,1.8l-0.7,0.9
				c-0.3,0.4-0.5,0.6-0.8,0.8c-0.3,0.3-0.5,0.5-0.8,0.8l-0.9,0.7c-0.6,0.5-1.2,0.8-1.8,1.2c-0.6,0.3-1.3,0.6-1.9,0.9
				c-0.7,0.2-1.3,0.5-1.9,0.6c-0.6,0.1-1.2,0.3-1.8,0.3c-0.6,0.1-1.2,0.1-1.7,0.2c-2.2,0.1-4.1-0.1-5.4-0.3c-1.3-0.2-2-0.5-2-0.5
				c-0.1,0-0.1-0.1-0.1-0.2c0-0.1,0.1-0.1,0.1-0.1c0,0,0.7,0.2,2,0.3c1.3,0.2,3.1,0.3,5.3,0.1c0.5,0,1.1-0.1,1.7-0.2
				c0.6-0.1,1.2-0.2,1.8-0.4c0.6-0.1,1.2-0.4,1.8-0.6c0.6-0.3,1.2-0.5,1.8-0.9c0.6-0.4,1.2-0.7,1.7-1.1l0.8-0.6
				c0.3-0.2,0.5-0.5,0.7-0.8c0.2-0.3,0.5-0.5,0.7-0.8l0.6-0.9c0.4-0.6,0.9-1.1,1.2-1.8l1.1-1.9c0.3-0.7,0.6-1.3,0.9-1.9
				c0.5-1.3,1-2.6,1.3-4c0.2-0.7,0.3-1.3,0.3-2c0.1-0.6,0.2-1.3,0.2-1.9c0-0.3,0-0.6,0.1-0.9c0-0.3,0-0.6,0-0.9c0-0.6,0-1.1-0.1-1.7
				c0-0.5-0.1-1.1-0.2-1.5c-0.1-0.5-0.1-1-0.3-1.4c-0.2-0.9-0.4-1.6-0.6-2.2c-0.4-1.2-0.7-1.9-0.7-1.9c0-0.1,0-0.2,0.1-0.2
				C153.7,444.5,153.8,444.5,153.8,444.6L153.8,444.6z"/>
		</g>
	</g>
	<g>
		<g>
			<path fill="#1E120D" d="M137.9,415.8c0,0,0.3,0.4,0.8,1.1c0.2,0.4,0.5,0.8,0.8,1.4c0.3,0.5,0.5,1.2,0.8,1.8
				c0.1,0.4,0.2,0.7,0.4,1.1c0.1,0.4,0.2,0.8,0.3,1.2c0.1,0.4,0.1,0.9,0.2,1.3c0.1,0.4,0.1,0.9,0.1,1.4c0,0.5,0,0.9-0.1,1.4
				c0,0.5-0.2,1-0.2,1.5c-0.1,0.5-0.3,1-0.4,1.4c-0.2,0.5-0.4,0.9-0.6,1.4c-0.2,0.5-0.5,0.8-0.8,1.3c-0.2,0.2-0.3,0.4-0.5,0.6
				l-0.5,0.5c-0.2,0.2-0.3,0.4-0.5,0.5l-0.6,0.5c-0.4,0.3-0.8,0.6-1.2,0.9c-0.8,0.5-1.7,0.9-2.5,1.1c-0.8,0.2-1.6,0.4-2.4,0.4
				c-0.7,0-1.4,0-2-0.1c-0.6-0.1-1.1-0.2-1.5-0.3c-0.8-0.3-1.3-0.5-1.3-0.5c-0.1,0-0.1-0.1-0.1-0.2c0-0.1,0.1-0.1,0.2-0.1
				c0,0,0.4,0.2,1.3,0.3c0.4,0.1,0.9,0.2,1.5,0.2c0.6,0.1,1.2,0,1.9,0c0.7-0.1,1.4-0.2,2.2-0.5c0.7-0.3,1.5-0.6,2.2-1.1
				c0.4-0.2,0.7-0.5,1-0.8l0.5-0.4c0.2-0.2,0.3-0.3,0.5-0.5l0.5-0.5c0.1-0.1,0.3-0.4,0.4-0.5c0.2-0.4,0.6-0.7,0.7-1.2
				c0.2-0.4,0.4-0.8,0.6-1.2c0.1-0.4,0.3-0.9,0.4-1.3c0.1-0.4,0.2-0.9,0.2-1.3c0-0.4,0.1-0.9,0.1-1.3c0-0.4,0-0.9-0.1-1.3
				c-0.1-0.4-0.1-0.8-0.1-1.2c-0.1-0.4-0.2-0.8-0.2-1.2c-0.1-0.4-0.2-0.7-0.3-1.1c-0.4-1.4-0.9-2.5-1.3-3.2
				c-0.4-0.7-0.6-1.2-0.6-1.2c0-0.1,0-0.2,0.1-0.2C137.8,415.7,137.9,415.7,137.9,415.8z"/>
		</g>
		<g>
			<path fill="#1E120D" d="M147.7,418.6c0,0-0.3,0.5-0.9,1.1c-0.6,0.6-1.4,1.4-2.3,2c-0.5,0.3-1,0.6-1.5,0.8c-0.5,0.2-1,0.4-1.4,0.4
				c-0.2,0-0.4,0-0.6,0c-0.2,0-0.3,0-0.5-0.1c-0.3-0.1-0.4-0.1-0.4-0.1c-0.1,0-0.1-0.1-0.1-0.2c0,0,0.1-0.1,0.1-0.1l0,0
				c0,0,0.1,0,0.4,0c0.1,0,0.2,0,0.4-0.1c0.2,0,0.3-0.1,0.5-0.2c0.4-0.1,0.8-0.3,1.2-0.6c0.4-0.2,0.9-0.5,1.3-0.8
				c0.4-0.3,0.9-0.6,1.3-0.9c0.4-0.3,0.8-0.6,1.1-0.8c0.7-0.5,1.1-0.8,1.1-0.8c0.1-0.1,0.2,0,0.2,0
				C147.7,418.4,147.7,418.5,147.7,418.6z"/>
		</g>
		<g>
			<path fill="#1E120D" d="M151.5,426.2c0,0-0.5,0.6-1.3,1.4c-0.4,0.4-1,0.8-1.6,1.1c-0.6,0.4-1.4,0.6-2.1,0.9
				c-0.4,0.1-0.8,0.2-1.2,0.2c-0.4,0-0.8,0.1-1.1,0c-0.4,0-0.7-0.1-1.1-0.2c-0.3-0.1-0.6-0.2-0.9-0.3c-0.3-0.1-0.5-0.2-0.7-0.3
				c-0.2-0.1-0.4-0.2-0.5-0.3c-0.3-0.2-0.4-0.3-0.4-0.3c-0.1,0-0.1-0.1,0-0.2c0,0,0.1-0.1,0.1,0l0,0c0,0,0.2,0.1,0.5,0.2
				c0.1,0.1,0.3,0.1,0.5,0.2c0.2,0.1,0.5,0.1,0.7,0.2c0.3,0.1,0.5,0.1,0.8,0.1c0.1,0,0.3,0,0.5,0.1c0.2,0,0.3,0,0.5,0
				c0.3,0,0.7,0,1-0.1c0.3,0,0.7-0.1,1-0.2c0.7-0.2,1.3-0.4,1.9-0.7c0.3-0.1,0.6-0.3,0.9-0.4c0.3-0.1,0.5-0.3,0.8-0.4
				c0.9-0.6,1.5-1,1.5-1c0.1-0.1,0.2,0,0.2,0C151.6,426.1,151.6,426.2,151.5,426.2z"/>
		</g>
	</g>
	<g>
		<g>
			<path fill="#1E120D" d="M95.5,463.8c0,0,0.3,0.2,1,0.4c0.6,0.2,1.5,0.5,2.6,0.8c0.3,0.1,0.6,0.1,0.9,0.2c0.3,0,0.6,0.1,0.9,0.1
				c0.6,0,1.3,0,2,0c0.3,0,0.7-0.1,1-0.2c0.3-0.1,0.7-0.2,1-0.3c0.7-0.2,1.3-0.5,1.9-0.9c0.3-0.2,0.6-0.4,0.9-0.6
				c0.1-0.1,0.3-0.2,0.4-0.3l0.4-0.4l0.4-0.4l0.3-0.4c0.2-0.3,0.4-0.6,0.6-0.9c0.3-0.6,0.6-1.2,0.7-1.8c0.1-0.6,0.2-1.2,0.2-1.7
				c0-0.5,0-1.1-0.1-1.5c-0.1-0.4-0.2-0.8-0.3-1.2c-0.2-0.6-0.3-1-0.3-1c0-0.1,0-0.1,0.1-0.2c0.1,0,0.1,0,0.2,0c0,0,0.2,0.3,0.5,1
				c0.1,0.3,0.3,0.7,0.4,1.2c0.1,0.5,0.2,1,0.2,1.6c0,0.6,0,1.2-0.1,1.9c-0.2,0.7-0.3,1.4-0.7,2.1c-0.2,0.3-0.4,0.7-0.6,1l-0.4,0.5
				l-0.4,0.4l-0.4,0.4c-0.2,0.2-0.3,0.3-0.5,0.4c-0.3,0.2-0.6,0.5-0.9,0.7c-0.7,0.5-1.4,0.8-2.2,1.1c-0.4,0.1-0.8,0.2-1.1,0.3
				c-0.4,0-0.8,0.1-1.1,0.1c-0.4,0-0.7,0-1.1,0c-0.4,0-0.7-0.1-1-0.1c-0.3-0.1-0.7-0.1-1-0.2c-0.3-0.1-0.6-0.2-0.9-0.2
				c-2.3-0.7-3.6-1.6-3.6-1.6c-0.1-0.1-0.1-0.2,0-0.2C95.3,463.8,95.4,463.8,95.5,463.8z"/>
		</g>
		<g>
			<path fill="#1E120D" d="M97.9,471.4c0,0,0.2-0.4,0.5-1c0.3-0.5,0.8-1.3,1.2-2c0.4-0.7,0.8-1.5,1-2c0.1-0.3,0.2-0.5,0.2-0.7
				c0-0.2,0-0.3,0-0.3l0,0c0-0.1,0.1-0.1,0.1-0.1c0,0,0.1,0,0.1,0.1c0,0,0.1,0.1,0.1,0.3c0,0.1,0.1,0.2,0.1,0.4c0,0.1,0.1,0.3,0,0.5
				c0,0.4-0.1,0.8-0.2,1.2c-0.1,0.4-0.3,0.8-0.5,1.2c-0.4,0.8-1,1.5-1.5,2c-0.5,0.5-0.9,0.7-0.9,0.7c-0.1,0.1-0.2,0-0.2,0
				C97.9,471.5,97.9,471.5,97.9,471.4z"/>
		</g>
		<g>
			<path fill="#1E120D" d="M104.2,473.9c0,0,0.3-0.5,0.7-1.3c0.2-0.4,0.4-0.8,0.6-1.3c0.2-0.5,0.3-1,0.4-1.6c0-0.3,0.1-0.5,0.1-0.8
				c0-0.3,0-0.5,0-0.8c0-0.3,0-0.5-0.1-0.7c0-0.2-0.1-0.5-0.1-0.7c-0.1-0.2-0.1-0.4-0.2-0.6c-0.1-0.2-0.1-0.3-0.2-0.4
				c-0.1-0.2-0.2-0.4-0.2-0.4l0,0c0-0.1,0-0.1,0.1-0.2c0,0,0.1,0,0.1,0c0,0,0.1,0.1,0.3,0.3c0.2,0.2,0.4,0.5,0.6,0.9
				c0.1,0.2,0.2,0.4,0.3,0.7c0.1,0.3,0.2,0.5,0.2,0.8c0.1,0.3,0.1,0.6,0.1,0.9c0,0.3-0.1,0.6-0.1,0.9c-0.1,0.6-0.3,1.2-0.6,1.7
				c-0.2,0.5-0.5,1-0.8,1.4c-0.6,0.7-1,1.1-1,1.1c-0.1,0.1-0.2,0-0.2,0C104.2,474.1,104.2,474,104.2,473.9z"/>
		</g>
	</g>
	<path fill="#FFFFFF" d="M408.2,74.5c-0.4-1.1-1.3-1.5-2.4-1.3c-3.5,0.5-5,3.4-7,6c-0.7,0.9-1.5,1.7-2.3,2.5
		c-0.4,0.4-1.2,2.2-1.8,2.1c-0.3-0.1-0.5,0.4-0.2,0.6c0.9,0.6,1.4,1.3,2.5,1.7c1.7,0.5,3.4-0.3,4.9-1.1c1.8-1,3.6-2.4,4.9-4.1
		C408.3,78.8,409.1,77.1,408.2,74.5z"/>
	<path fill="#FFFFFF" d="M419,76c-1.4,0.4-2.5,0.7-3.8,1.5c-1.3,0.8-2.2,2.1-3.1,3.2c-2.1,2.5-4,5.1-5.6,8c-0.6,1.1,0.6,2.4,1.8,1.8
		c2.6-1.4,5-3.1,7.3-5c1.2-1,2.4-1.9,3.5-3.1c1.2-1.3,1.5-2.8,2-4.4C421.4,76.9,420.2,75.7,419,76z"/>
	<path fill="#FFFFFF" d="M429.1,79.7c-0.3-0.8-1-1.5-1.9-1.4c-3.2,0.3-4.3,3.4-5.5,5.9c-1.3,2.8-2.2,5.9-3.4,8.8
		c-0.4,1.1,1.1,1.8,1.8,1.1c2.1-2.1,3.9-4.3,5.7-6.7C427.5,85.4,430.1,82.5,429.1,79.7z"/>
	<path fill="#FFFFFF" d="M499.6,84.9c-2.6-2.2-5.7,1.1-3.7,3.7c2.3,2.9,3.2,6.6,4,10.1c0.8,3.6,6.1,2.6,6.2-0.8
		C506.3,93.1,503.1,88,499.6,84.9z"/>
	<path fill="#FFFFFF" d="M516.4,92.5c-0.8-2.7-3.4-4.4-5.3-6.5c-2.3-2.5-4.6-5.2-6.5-8c-1.2-1.7-4.3-0.7-3.5,1.5
		c1.2,3.3,2.6,6.6,4.5,9.5c1.8,2.7,3.8,6.3,6.9,7.3C514.8,97,517.1,94.7,516.4,92.5z"/>
	<path fill="#FFFFFF" d="M62.7,409.2c-1.8-3.7-1.4-8.2-2.1-12.1c-0.3-1.5-2.5-1.7-3.2-0.4c-2.3,4.4-2.2,9.3-0.9,14
		c1,3.8,3.7,8.9,8.2,8.3c0.6-0.1,1.2-0.7,1.3-1.3C66.6,414.5,64,411.9,62.7,409.2z"/>
	<path fill="#FFFFFF" d="M75.6,404.9c-3-2-3.7-4.5-4.9-7.7c-0.5-1.2-2.1-1.3-2.6,0c-1.5,4.3,0.4,9.7,3.7,12.6c1.1,1,2.5,1.1,3.8,0.5
		c1.2-0.6,1.4-1.5,1.6-2.7C77.3,406.5,76.5,405.5,75.6,404.9z"/>
	<path fill="#FFFFFF" d="M86.2,398.7c-0.7-2.4-2.5-4.1-4.1-5.9c-1.4-1.6-3-3.2-4.7-4.5c-2.2-1.8-4.8,0.9-3.1,3.1
		c1.2,1.5,2.2,3.3,3.2,5c1.1,1.9,1.9,4,3.6,5.4C83.4,403.5,87.2,401.9,86.2,398.7z"/>
	<path fill="#FFFFFF" d="M158,354.4c-0.4-2.7-2.9-4.8-4.9-6.6c-2-1.8-4.4-3.2-6.8-4.4c-2.1-1-4.5,1.6-2.6,3.4c1.8,1.7,3.4,3.6,5,5.4
		c1.6,1.8,2.8,4.3,5.1,5.4C156.2,358.9,158.3,356.9,158,354.4z"/>
	<path fill="#FFFFFF" d="M151.1,359.9c-0.7-2.1-2.4-3.5-3.8-5.1c-1.6-1.7-3.3-3.1-5.1-4.5c-1.4-1-3.4,1-2.4,2.4
		c2.4,3.4,4.2,8.5,8.3,10.3C149.7,363.7,151.6,361.6,151.1,359.9z"/>
	<path fill="#FFFFFF" d="M227.6,301.6c-4.5-3.4-9.4-5.1-14.2-7.7c-0.6-0.3-1.1,0.6-0.6,0.9c3.9,2.6,7.4,6.5,10.9,9.6
		c2.5,2.3,5.2,7.3,8.9,7.1c0.7,0,1.4-0.5,1.5-1.2C235,306.6,230.3,303.7,227.6,301.6z"/>
	<path fill="#FFFFFF" d="M222.9,311c-2.6-2.5-5.6-4.1-8.5-6.3c-0.2-0.1-0.4,0.1-0.3,0.3c1.9,2.5,3.4,5.4,5.4,7.9
		c2,2.5,4.1,7,7.4,7.8c0.9,0.2,1.8-0.4,1.9-1.4C229,315.8,225.2,313.1,222.9,311z"/>
	<path fill="#FFFFFF" d="M215.6,330.5c-2.5-3.1-6.3-5.5-10.3-5.7c-0.8,0-1.2,1-0.6,1.5c3,2.9,6.3,5.4,7.9,9.3c0.8,1.9,2.8,8.5,6,5.3
		C221.4,338.2,217.4,332.8,215.6,330.5z"/>
</g>
</svg>
